<?xml version="1.0" standalone="no"?>
<!DOCTYPE svg PUBLIC "-//W3C//DTD SVG 20010904//EN"
 "http://www.w3.org/TR/2001/REC-SVG-20010904/DTD/svg10.dtd">
<svg version="1.0" xmlns="http://www.w3.org/2000/svg"
 width="646.000000pt" height="796.000000pt" viewBox="0 0 646.000000 796.000000"
 preserveAspectRatio="xMidYMid meet">

<g transform="translate(0.000000,796.000000) scale(0.100000,-0.100000)"
fill="#000000" stroke="none">
<path d="M0 3980 l0 -3980 365 0 365 0 0 2063 c1 1948 2 2066 19 2137 25 108
67 184 138 257 76 77 172 127 276 143 52 8 630 10 2087 8 l2015 -3 58 -22
c150 -56 259 -164 319 -311 l23 -57 3 -2108 2 -2107 395 0 395 0 0 3980 0
3980 -3230 0 -3230 0 0 -3980z m1578 2918 l-3 -153 -92 -3 c-126 -4 -120 -22
7 -22 94 0 100 -1 100 -20 0 -20 -5 -20 -122 -18 l-123 3 0 50 0 50 98 3 c129
4 127 22 -3 22 -94 0 -100 1 -100 20 0 12 -6 20 -12 19 -27 -3 -38 2 -38 17 0
8 17 22 38 30 37 16 92 61 92 75 0 5 -26 9 -57 11 -50 3 -58 6 -58 23 0 18 8
20 82 23 74 3 82 1 88 -18 4 -14 15 -20 36 -20 24 0 29 4 29 23 0 27 7 37 27
37 11 0 13 -29 11 -152z m360 -36 l2 -182 -25 0 -25 0 0 178 c0 98 3 182 7
186 4 4 14 5 23 4 13 -3 15 -30 18 -186z m410 141 c3 -34 7 -42 25 -45 14 -2
23 -11 25 -25 3 -19 -1 -23 -22 -23 -24 0 -26 -3 -26 -44 0 -45 -17 -65 -39
-43 -12 12 -16 183 -5 212 13 32 39 12 42 -32z m370 -141 c2 -177 2 -182 -18
-182 -19 0 -20 6 -20 90 0 83 -1 90 -20 90 -18 0 -20 -7 -20 -81 0 -78 -1 -80
-22 -77 -19 2 -24 11 -29 48 -3 25 -7 40 -7 34 -1 -7 -32 -15 -72 -19 -99 -10
-101 -7 -98 124 l3 106 78 3 c71 3 78 1 75 -15 -2 -14 -15 -19 -56 -21 -48 -3
-53 -5 -50 -25 3 -19 10 -22 56 -25 44 -3 53 -6 50 -20 -2 -12 -17 -18 -53
-22 -45 -5 -50 -8 -53 -32 -3 -26 -2 -26 62 -30 l66 -3 0 111 c0 93 3 113 16
118 27 10 34 -3 34 -70 0 -57 2 -64 20 -64 18 0 20 7 20 76 0 66 2 75 18 72
15 -3 17 -21 20 -186z m316 172 c3 -9 6 -42 6 -75 0 -56 1 -59 25 -59 18 0 25
-5 25 -20 0 -15 -7 -20 -25 -20 -24 0 -24 -2 -27 -87 -3 -83 -4 -88 -25 -91
-21 -3 -23 1 -23 36 0 21 -2 41 -4 43 -3 2 -47 0 -99 -5 -52 -5 -106 -6 -121
-2 -42 10 -32 33 19 40 39 6 45 10 45 32 0 14 -6 24 -14 24 -8 0 -24 12 -36
28 -17 20 -21 36 -17 65 7 51 39 76 97 77 61 0 100 -34 100 -88 -1 -43 -16
-67 -53 -81 -17 -7 -27 -18 -27 -31 0 -19 5 -21 53 -17 l52 4 3 109 c1 60 4
115 7 122 6 17 32 15 39 -4z m440 0 c3 -9 6 -33 6 -54 0 -32 4 -39 23 -42 14
-2 23 -11 25 -25 3 -19 -1 -23 -22 -23 -23 0 -25 -4 -28 -57 -3 -51 -6 -58
-25 -61 -23 -3 -23 -3 -23 131 0 73 3 137 7 140 11 12 31 7 37 -9z m804 -172
l2 -182 -25 0 c-24 0 -25 2 -25 65 l0 65 -38 0 c-28 0 -44 -6 -60 -25 -16 -19
-32 -25 -60 -25 -81 0 -129 108 -86 193 35 69 85 84 140 42 21 -16 46 -25 68
-25 34 0 36 2 36 33 0 38 7 49 30 45 13 -3 15 -30 18 -186z m-2420 166 c17
-17 17 -309 0 -326 -25 -25 -38 7 -38 94 l0 84 -31 0 c-24 0 -30 4 -27 18 2
10 14 18 31 20 26 3 27 6 27 56 0 65 11 81 38 54z m333 -39 c7 -46 23 -73 54
-93 42 -28 27 -68 -17 -45 -13 6 -30 20 -39 31 -15 19 -16 19 -51 -16 -38 -38
-62 -45 -72 -21 -3 10 9 28 34 51 35 32 40 42 40 79 0 64 40 75 51 14z m1634
-26 c0 -55 2 -63 20 -65 11 -2 21 -11 23 -20 3 -17 -10 -18 -168 -18 -158 0
-171 1 -168 18 3 15 18 17 118 20 122 3 130 6 130 55 l0 27 -99 0 c-100 0
-118 6 -107 36 5 12 27 14 128 12 l123 -3 0 -62z m575 42 c0 -24 2 -25 75 -25
71 0 76 1 85 25 6 16 17 25 30 25 20 0 21 -5 18 -82 l-3 -83 -119 -3 c-89 -2
-121 1 -128 10 -9 16 -11 142 -1 151 3 4 15 7 25 7 13 0 18 -7 18 -25z m-1005
-10 c0 -16 -8 -21 -37 -23 -21 -2 -38 -8 -38 -13 0 -24 33 -70 60 -84 19 -10
27 -20 24 -30 -9 -23 -46 -18 -77 11 l-28 25 -35 -30 c-34 -31 -74 -41 -74
-20 0 6 18 29 40 50 50 48 55 89 13 89 -16 0 -34 4 -42 9 -12 8 -13 12 -1 26
11 13 30 15 104 13 83 -3 91 -5 91 -23z m1555 5 c0 -19 -7 -20 -100 -20 -97 0
-100 -1 -106 -24 -3 -13 -4 -35 -2 -47 3 -23 7 -24 103 -27 62 -2 102 -7 106
-14 13 -21 -1 -28 -52 -28 l-49 0 0 -40 0 -39 73 -3 c56 -2 72 -6 72 -18 0
-13 -26 -15 -167 -18 -162 -2 -168 -2 -168 17 0 18 8 20 68 23 l67 3 0 35 c0
35 0 35 -50 40 l-50 5 -3 74 c-2 41 -1 80 2 88 4 10 35 13 131 13 118 0 125
-1 125 -20z m-3152 -17 c-2 -11 -14 -19 -31 -21 -22 -3 -27 -8 -27 -32 0 -36
17 -76 47 -113 27 -34 29 -45 6 -54 -11 -4 -26 5 -50 33 -18 21 -33 34 -33 27
0 -17 -50 -73 -65 -73 -27 0 -24 32 7 70 22 29 32 53 36 89 4 48 4 50 -24 53
-18 2 -30 10 -32 21 -3 15 6 17 83 17 77 0 86 -2 83 -17z m2850 -165 c3 -15
-7 -18 -70 -20 l-73 -3 -3 -58 c-3 -54 -5 -58 -25 -55 -19 3 -22 10 -25 61
l-3 57 -69 0 c-52 0 -70 4 -70 13 0 8 3 17 7 21 4 3 79 5 167 4 142 -3 161 -5
164 -20z m-2311 -32 c30 -35 29 -42 -6 -77 -27 -27 -35 -29 -103 -29 -97 1
-126 23 -120 91 3 31 61 50 136 46 61 -4 73 -8 93 -31z m1491 -33 l-3 -68
-127 -3 -128 -3 0 71 0 70 130 0 131 0 -3 -67z m-540 10 l3 -42 102 -3 c83 -2
102 -6 102 -18 0 -13 -21 -15 -125 -15 l-125 0 -3 63 c-3 61 -2 63 20 60 19
-2 23 -10 26 -45z m417 -713 l0 -345 -50 0 -50 0 -3 339 c-2 265 1 341 10 348
7 4 31 7 53 6 l40 -3 0 -345z m620 0 l0 -345 -50 0 -50 0 -3 193 -2 192 -65 0
-65 0 0 45 0 45 65 0 65 0 0 94 c0 124 2 128 59 124 l46 -3 0 -345z m475 325
c0 -24 2 -25 64 -25 71 0 89 -12 84 -57 -3 -27 -5 -28 -78 -33 -67 -4 -71 -6
-38 -13 53 -11 92 -60 84 -106 -6 -39 -56 -91 -88 -91 -9 0 -20 -5 -24 -11 -4
-8 16 -10 67 -9 103 3 99 4 99 -35 0 -28 -4 -36 -22 -40 -66 -14 -192 -25
-293 -25 -123 0 -125 1 -125 61 l0 29 80 0 c61 0 80 3 80 14 0 7 -14 16 -31
20 -45 9 -89 57 -89 98 0 41 38 82 90 96 31 9 26 10 -42 11 l-78 1 0 39 c0 46
9 51 91 51 56 0 59 1 59 25 0 24 3 25 55 25 52 0 55 -1 55 -25z m-1236 -1 c3
-9 6 -154 6 -324 0 -334 2 -320 -55 -320 -55 0 -55 0 -55 166 0 145 -1 154
-19 154 -15 0 -21 -10 -26 -42 -10 -58 -50 -131 -85 -151 -35 -21 -94 -22
-129 -1 -57 34 -91 122 -91 236 0 127 46 225 115 248 87 29 168 -37 189 -152
5 -29 12 -38 26 -38 19 0 20 8 20 113 0 63 3 117 7 120 3 4 25 7 49 7 29 0 44
-5 48 -16z m1526 -78 l0 -94 44 -3 c43 -4 44 -4 65 44 40 86 148 129 247 97
103 -33 154 -155 103 -246 -26 -47 -37 -57 -87 -83 -92 -47 -217 -8 -261 81
-11 24 -21 37 -21 31 0 -9 -16 -13 -45 -13 l-45 0 0 -95 0 -95 -55 0 -55 0 0
235 0 235 55 0 55 0 0 -94z m660 -156 l0 -250 -50 0 -50 0 0 250 0 250 50 0
50 0 0 -250z m-2722 146 c2 -65 -1 -92 -10 -98 -7 -4 -93 -8 -190 -8 -152 0
-178 -2 -178 -15 0 -13 28 -15 195 -15 l195 0 0 -39 c0 -48 -7 -51 -116 -51
-68 0 -84 -3 -84 -15 0 -13 21 -15 130 -15 l130 0 0 -45 0 -45 -315 0 c-293 0
-315 1 -315 18 0 16 -22 17 -317 17 l-318 0 -3 43 -3 42 124 0 c127 0 137 3
137 40 0 5 -42 11 -92 12 l-93 3 0 125 0 125 237 3 238 2 5 -22 c3 -13 5 -70
3 -128 l-3 -105 -92 -3 c-51 -1 -93 -7 -93 -12 0 -37 10 -40 136 -40 104 0
124 -2 124 -15 0 -13 22 -15 135 -15 113 0 135 2 135 15 0 12 -16 15 -83 15
-51 0 -88 5 -95 12 -13 13 -17 153 -6 182 5 14 32 16 190 16 116 0 184 4 184
10 0 6 -68 10 -184 10 -158 0 -185 2 -190 16 -8 21 -8 59 1 68 4 3 113 5 242
4 l236 -3 3 -89z m-2053 29 l0 -40 -92 -3 c-55 -2 -93 -7 -93 -13 0 -40 63
-87 153 -113 52 -15 57 -19 51 -39 -15 -53 -30 -65 -71 -57 -69 14 -113 35
-163 78 -37 32 -51 39 -57 29 -28 -45 -148 -107 -209 -107 -25 0 -33 6 -48 37
-20 41 -14 48 44 59 44 8 116 49 135 77 29 41 20 46 -77 49 l-93 3 -3 28 c-7
59 -16 58 265 55 l258 -3 0 -40z m615 -85 l0 -130 -237 2 -238 3 -3 128 -3
127 241 0 240 0 0 -130z m2420 43 c0 -81 25 -185 56 -235 13 -20 41 -51 64
-69 22 -18 40 -38 40 -46 0 -7 -13 -27 -28 -44 -28 -31 -29 -31 -59 -16 -36
19 -85 73 -104 116 -8 17 -16 31 -19 31 -3 0 -14 -19 -25 -41 -20 -43 -108
-129 -131 -129 -17 0 -64 61 -64 83 0 10 6 17 14 17 19 0 93 83 110 122 29 69
36 107 36 191 l0 87 55 0 55 0 0 -67z m1964 40 c4 -9 4 -99 0 -200 l-7 -183
-52 0 -52 0 -6 107 c-9 137 -9 278 0 286 3 4 30 7 59 7 39 0 53 -4 58 -17z
m-4306 -300 l-3 -48 -122 -3 -122 -3 -3 -52 -3 -52 -55 0 -55 0 -3 52 -3 52
-129 3 c-116 3 -129 1 -134 -14 -4 -16 -19 -18 -135 -18 l-130 0 -3 -112 -3
-113 -50 0 -50 0 -3 113 -3 112 -129 0 -130 0 0 45 0 45 314 0 c305 0 314 1
319 20 5 19 14 20 322 20 l316 0 -3 -47z m3720 -66 c6 -7 12 -42 14 -77 l3
-65 185 -5 c202 -5 201 -5 186 -66 l-6 -24 -239 0 c-209 0 -240 2 -245 16 -12
31 -7 222 7 227 25 11 85 7 95 -6z m-3003 -127 l0 -115 -52 -3 -53 -3 0 70 0
71 -187 2 -188 3 -3 48 -3 47 243 -2 243 -3 0 -115z m-1165 40 l0 -60 192 -2
c211 -3 209 -3 194 -64 l-6 -24 -245 0 -245 0 0 105 0 105 55 0 55 0 0 -60z
m1805 -50 l0 -105 -50 0 -50 0 -3 63 -3 62 -194 0 -195 0 0 39 c0 22 6 42 13
44 6 3 118 5 247 4 l235 -2 0 -105z m2060 -5 l0 -100 -50 0 -50 0 -3 53 -3 52
-179 0 -180 0 -6 25 c-3 14 -3 36 0 50 l6 25 233 -2 232 -3 0 -100z m865 85
c32 -17 43 -48 30 -80 -23 -56 -98 -62 -125 -9 -19 36 -19 41 6 73 22 27 56
34 89 16z"/>
<path d="M1455 6940 c-4 -6 12 -10 39 -10 25 0 46 5 46 10 0 6 -18 10 -39 10
-22 0 -43 -4 -46 -10z"/>
<path d="M1410 6889 c-14 -11 -34 -24 -45 -29 -13 -6 12 -9 78 -9 91 -1 97 0
97 19 0 17 -7 20 -43 20 -24 0 -47 4 -52 9 -6 6 -19 3 -35 -10z"/>
<path d="M2822 6968 c-21 -21 -14 -63 13 -78 21 -11 29 -11 49 0 33 17 40 38
21 66 -17 26 -62 33 -83 12z"/>
<path d="M4032 6945 c-19 -41 -15 -98 8 -123 26 -27 35 -27 60 -2 25 25 27 95
4 128 -21 30 -58 29 -72 -3z"/>
<path d="M4165 6890 c0 -23 5 -32 22 -36 31 -8 43 2 43 37 0 26 -3 29 -32 29
-30 0 -33 -3 -33 -30z"/>
<path d="M4400 6920 c0 -19 5 -21 77 -18 65 3 78 6 81 21 3 15 -6 17 -77 17
-75 0 -81 -2 -81 -20z"/>
<path d="M2185 6773 c-62 -16 -34 -53 39 -53 92 0 113 46 25 54 -24 3 -53 2
-64 -1z"/>
<path d="M3620 6750 l0 -30 80 0 80 0 0 30 0 30 -80 0 -80 0 0 -30z"/>
<path d="M4698 6173 c-21 -5 -23 -24 -6 -41 13 -13 75 -16 102 -6 24 9 19 41
-6 48 -25 6 -64 6 -90 -1z"/>
<path d="M3242 6227 c-20 -23 -35 -108 -29 -162 7 -69 26 -109 54 -113 35 -5
46 31 46 145 0 85 -3 106 -18 123 -21 23 -38 25 -53 7z"/>
<path d="M5314 6229 c-28 -30 -24 -97 7 -120 81 -62 186 45 114 116 -32 33
-93 34 -121 4z"/>
<path d="M2017 6274 c-4 -4 -7 -20 -7 -36 l0 -28 136 0 135 0 -3 33 -3 32
-126 3 c-69 1 -128 -1 -132 -4z"/>
<path d="M1220 6235 l0 -45 130 0 130 0 0 45 0 45 -130 0 -130 0 0 -45z"/>
<path d="M2301 4241 c-9 -6 -10 -11 -2 -15 8 -5 8 -13 0 -27 -23 -44 37 -68
66 -26 l15 22 6 -22 c4 -13 13 -23 20 -23 10 0 14 14 14 50 0 38 -4 50 -15 50
-8 0 -15 -9 -15 -19 0 -10 -7 -21 -15 -24 -18 -7 -30 9 -13 16 10 4 9 8 -2 16
-18 13 -40 14 -59 2z m41 -63 c-6 -6 -16 -7 -22 -3 -9 6 -9 9 1 16 17 10 34 0
21 -13z"/>
<path d="M2430 4195 l0 -55 -49 0 c-69 0 -77 -20 -9 -22 l53 -1 -50 -6 c-41
-5 -50 -9 -50 -26 0 -18 8 -20 70 -23 81 -3 81 14 0 21 l-50 3 53 2 c56 2 75
19 53 46 -8 10 -9 16 -1 21 5 3 10 26 10 51 0 32 -4 44 -15 44 -12 0 -15 -13
-15 -55z"/>
<path d="M2718 4243 c-9 -2 -20 -12 -23 -22 -13 -41 22 -69 71 -57 31 8 34 60
5 76 -20 10 -25 11 -53 3z m46 -29 c8 -21 -1 -34 -25 -34 -12 0 -19 7 -19 18
0 34 33 45 44 16z"/>
<path d="M2822 4203 c4 -66 28 -70 28 -4 0 39 -4 51 -16 51 -12 0 -14 -10 -12
-47z"/>
<path d="M3270 4155 c0 -78 3 -95 15 -95 11 0 15 12 15 46 0 33 5 51 18 60 16
13 16 13 0 14 -14 0 -18 8 -18 35 0 24 -5 35 -15 35 -12 0 -15 -17 -15 -95z"/>
<path d="M3690 4225 c0 -19 -7 -26 -32 -34 -22 -6 -26 -10 -12 -10 32 -2 44
-21 44 -73 0 -26 5 -48 10 -48 6 0 10 38 10 95 0 57 -4 95 -10 95 -5 0 -10
-11 -10 -25z"/>
<path d="M3850 4231 c0 -11 -6 -22 -12 -25 -10 -5 -10 -7 0 -12 6 -3 12 -21
12 -40 0 -19 5 -34 10 -34 6 0 10 28 10 65 0 37 -4 65 -10 65 -5 0 -10 -9 -10
-19z"/>
<path d="M3890 4180 c0 -40 4 -70 10 -70 6 0 10 30 10 70 0 40 -4 70 -10 70
-6 0 -10 -30 -10 -70z"/>
<path d="M4090 4226 c0 -14 -9 -31 -20 -39 l-21 -14 21 -6 c17 -4 20 -13 20
-56 0 -28 5 -51 10 -51 6 0 10 38 10 95 0 57 -4 95 -10 95 -5 0 -10 -11 -10
-24z"/>
<path d="M2540 4233 c92 -9 106 -33 19 -33 -47 0 -49 -1 -49 -29 0 -22 6 -30
25 -35 39 -10 32 -36 -10 -36 -19 0 -35 -4 -35 -10 0 -6 35 -10 85 -10 82 0
119 15 53 22 -42 4 -44 30 -3 39 23 5 16 7 -27 8 -44 1 -58 5 -58 16 0 11 12
15 50 15 49 0 50 1 50 30 l0 30 -67 -2 c-38 0 -52 -3 -33 -5z"/>
<path d="M2925 4233 c36 -9 38 -21 6 -41 -39 -24 -29 -36 15 -17 29 12 38 12
61 0 14 -8 31 -11 36 -8 6 3 -2 12 -17 20 -34 18 -33 41 2 46 15 2 -7 4 -48 4
-41 1 -66 -1 -55 -4z"/>
<path d="M3155 4223 c15 -34 17 -71 6 -92 -11 -20 -9 -21 36 -21 l48 0 0 65 0
65 -49 0 c-42 0 -47 -2 -41 -17z m55 -48 c0 -25 -4 -45 -10 -45 -11 0 -14 73
-3 83 11 12 13 8 13 -38z"/>
<path d="M3372 4188 l3 -53 49 -3 c71 -5 94 11 27 18 -76 7 -81 30 -6 30 35 0
54 4 50 10 -3 6 -28 10 -56 10 -27 0 -49 5 -49 10 0 6 22 10 49 10 28 0 53 5
56 10 4 6 -18 10 -60 10 l-66 0 3 -52z"/>
<path d="M3560 4175 l0 -65 50 0 c58 0 68 17 13 22 l-38 3 -3 53 c-4 75 -22
65 -22 -13z"/>
<path d="M3780 4213 c0 -14 -7 -35 -17 -45 -19 -21 -10 -37 11 -19 8 7 25 9
43 5 27 -7 28 -6 11 13 -10 11 -18 32 -18 46 0 17 -5 27 -15 27 -10 0 -15 -10
-15 -27z"/>
<path d="M3960 4176 c0 -36 3 -67 8 -69 12 -7 82 4 82 13 0 4 -14 7 -32 6 -24
-1 -33 4 -36 17 -3 13 5 19 30 24 l33 7 -30 6 c-37 6 -40 34 -5 38 47 7 45 22
-3 22 l-47 0 0 -64z"/>
<path d="M2900 4135 c0 -10 10 -15 29 -15 25 0 30 -5 33 -27 4 -38 28 -42 28
-4 0 26 4 30 32 33 17 2 33 9 36 16 3 9 -17 12 -77 12 -65 0 -81 -3 -81 -15z"/>
<path d="M2727 4134 c-4 -4 -7 -22 -7 -41 l0 -33 65 0 65 0 0 40 c0 38 -12 52
-25 30 -8 -13 -68 -13 -81 0 -6 6 -13 7 -17 4z m93 -44 c0 -5 -16 -10 -35 -10
-19 0 -35 5 -35 10 0 6 16 10 35 10 19 0 35 -4 35 -10z"/>
<path d="M3782 4093 c3 -27 6 -28 66 -31 38 -2 62 1 62 8 0 5 -21 10 -46 10
-37 0 -47 4 -51 20 -8 32 -35 25 -31 -7z"/>
<path d="M3350 4090 c0 -6 35 -10 85 -10 50 0 85 4 85 10 0 6 -35 10 -85 10
-50 0 -85 -4 -85 -10z"/>
<path d="M980 3245 l0 -325 2225 0 2225 0 0 325 0 325 -2225 0 -2225 0 0 -325z
m335 75 c4 -6 -5 -10 -19 -10 -16 0 -26 -6 -26 -15 0 -8 4 -15 8 -15 5 0 17
-7 28 -15 19 -14 19 -14 -3 -15 -12 0 -28 6 -36 14 -12 13 -17 13 -36 0 -12
-9 -29 -14 -39 -11 -13 3 -11 6 11 17 34 17 35 40 1 40 -14 0 -23 4 -19 10 3
6 33 10 65 10 32 0 62 -4 65 -10z m173 -28 l3 -33 -63 3 c-51 2 -63 6 -66 21
-8 39 5 48 65 45 58 -3 58 -3 61 -36z m180 6 c-2 -25 -9 -34 -28 -39 -21 -6
-20 -7 13 -8 36 -1 50 -17 24 -27 -8 -3 -11 -17 -9 -39 3 -21 0 -35 -7 -35 -6
0 -11 9 -11 20 0 17 -7 20 -49 20 -37 0 -50 4 -55 18 -3 9 -9 23 -12 30 -4 8
5 12 28 13 30 1 31 2 8 8 -25 7 -36 30 -26 57 4 10 22 14 66 14 l61 0 -3 -32z
m182 7 c0 -23 -4 -25 -52 -27 l-53 -1 45 -4 c65 -5 82 -15 40 -23 l-35 -7 38
-2 c20 0 37 -5 37 -11 0 -6 -35 -10 -86 -10 -54 0 -83 4 -79 10 3 6 21 10 38
11 30 1 30 1 7 8 -16 4 -25 14 -25 26 0 16 9 21 50 26 l50 6 -47 1 c-70 3 -59
22 12 22 57 0 60 -1 60 -25z m325 -5 c28 -55 13 -170 -23 -170 -10 0 -12 5 -6
18 13 28 16 129 5 150 -9 16 -6 32 5 32 2 0 10 -13 19 -30z m-192 -7 c-10 -36
-10 -100 0 -136 12 -42 -15 -30 -30 14 -13 36 -9 98 8 130 15 29 31 23 22 -8z
m117 -13 c0 -22 6 -49 12 -60 11 -16 10 -23 -6 -37 -13 -13 -20 -15 -23 -5 -3
6 -18 12 -34 12 -43 0 -44 19 -7 78 40 63 58 67 58 12z m-592 -47 c2 -9 -8
-13 -32 -13 -25 0 -36 -4 -36 -15 0 -8 -4 -15 -10 -15 -5 0 -10 7 -10 15 0 10
-11 15 -35 15 -33 0 -43 8 -28 24 12 12 146 2 151 -11z m-181 0 c13 -6 8 -9
-22 -13 -37 -5 -40 -8 -43 -37 -3 -35 -22 -46 -22 -14 0 37 -12 51 -42 51 -17
0 -27 4 -23 10 7 12 125 14 152 3z m111 -53 c22 0 44 -4 47 -10 4 -6 -18 -10
-59 -10 -57 0 -66 2 -66 18 0 27 13 35 26 18 7 -10 27 -16 52 -16z m412 6 c0
-14 -4 -28 -10 -31 -5 -3 -10 3 -10 14 0 19 -6 21 -56 21 -34 0 -53 4 -49 10
3 6 33 10 66 10 56 0 59 -1 59 -24z"/>
<path d="M1390 3295 c0 -11 11 -15 40 -15 29 0 40 4 40 15 0 11 -11 15 -40 15
-29 0 -40 -4 -40 -15z"/>
<path d="M1570 3295 c0 -11 11 -15 40 -15 29 0 40 4 40 15 0 11 -11 15 -40 15
-29 0 -40 -4 -40 -15z"/>
<path d="M2056 3245 c-16 -24 -16 -25 4 -25 15 0 20 7 20 25 0 14 -2 25 -4 25
-2 0 -11 -11 -20 -25z"/>
<path d="M1189 2694 c-21 -23 -24 -35 -24 -106 0 -75 2 -81 28 -104 l28 -24
318 0 318 0 24 26 c21 23 24 35 24 104 -1 69 -3 82 -25 104 l-23 26 -322 0
-322 0 -24 -26z m472 -74 c6 0 6 -7 0 -19 -6 -10 -12 -33 -13 -50 -2 -31 -3
-32 -48 -29 -37 3 -45 6 -45 23 0 11 -7 25 -15 32 -13 11 -13 12 3 13 15 0 15
3 5 21 -11 17 -10 22 6 35 11 8 23 14 26 14 3 0 15 -6 26 -14 16 -13 17 -18 6
-35 -10 -18 -10 -21 3 -21 10 0 15 10 15 33 0 41 14 59 18 23 2 -14 8 -26 13
-26z m-281 -22 l0 -58 -37 -2 -38 -1 38 -4 c55 -6 46 -25 -10 -21 -46 3 -48 4
-47 33 0 17 -6 35 -15 41 -12 10 -11 13 9 24 21 11 21 13 6 22 -28 16 -8 27
44 25 l50 -2 0 -57z m140 -9 c0 -68 -1 -70 -22 -64 -13 4 -32 16 -44 26 -15
14 -23 16 -32 7 -19 -19 -23 -5 -9 32 9 26 9 34 0 37 -25 9 -12 22 25 26 90 9
82 15 82 -64z m278 39 c-2 -19 -11 -24 -48 -29 l-45 -6 50 -1 c38 -2 46 -5 37
-14 -9 -9 -8 -16 5 -30 15 -17 13 -18 -50 -18 -38 0 -67 4 -67 10 0 6 4 10 9
10 6 0 7 16 4 35 l-6 35 44 2 c41 1 41 2 9 5 -61 7 -58 23 4 23 54 0 57 -1 54
-22z"/>
<path d="M1568 2623 c7 -3 16 -2 19 1 4 3 -2 6 -13 5 -11 0 -14 -3 -6 -6z"/>
<path d="M1576 2555 c4 -8 19 -15 35 -15 21 0 27 4 23 15 -4 8 -19 15 -35 15
-21 0 -27 -4 -23 -15z"/>
<path d="M1318 2593 c7 -3 16 -2 19 1 4 3 -2 6 -13 5 -11 0 -14 -3 -6 -6z"/>
<path d="M1450 2619 c0 -5 5 -7 10 -4 6 3 10 8 10 11 0 2 -4 4 -10 4 -5 0 -10
-5 -10 -11z"/>
<path d="M1735 2560 c3 -5 8 -10 11 -10 2 0 4 5 4 10 0 6 -5 10 -11 10 -5 0
-7 -4 -4 -10z"/>
<path d="M4060 2635 c0 -8 5 -15 10 -15 6 0 10 7 10 15 0 8 -4 15 -10 15 -5 0
-10 -7 -10 -15z"/>
<path d="M4998 2643 c7 -3 16 -2 19 1 4 3 -2 6 -13 5 -11 0 -14 -3 -6 -6z"/>
<path d="M4351 2624 c0 -11 3 -14 6 -6 3 7 2 16 -1 19 -3 4 -6 -2 -5 -13z"/>
<path d="M4501 2624 c0 -11 3 -14 6 -6 3 7 2 16 -1 19 -3 4 -6 -2 -5 -13z"/>
<path d="M4785 2630 c-3 -5 -1 -10 4 -10 6 0 11 5 11 10 0 6 -2 10 -4 10 -3 0
-8 -4 -11 -10z"/>
<path d="M4425 2610 c3 -5 8 -10 11 -10 2 0 4 5 4 10 0 6 -5 10 -11 10 -5 0
-7 -4 -4 -10z"/>
<path d="M4942 2590 c0 -14 2 -19 5 -12 2 6 2 18 0 25 -3 6 -5 1 -5 -13z"/>
<path d="M4978 2593 c7 -3 16 -2 19 1 4 3 -2 6 -13 5 -11 0 -14 -3 -6 -6z"/>
<path d="M5016 2593 c7 -4 14 -17 17 -28 5 -16 5 -15 4 4 -1 14 -9 26 -17 28
-10 3 -11 2 -4 -4z"/>
<path d="M5211 2595 c1 -19 18 -51 18 -35 0 8 -4 22 -9 30 -5 8 -9 11 -9 5z"/>
<path d="M4200 2575 c0 -8 2 -15 4 -15 2 0 6 7 10 15 3 8 1 15 -4 15 -6 0 -10
-7 -10 -15z"/>
<path d="M4740 2570 c0 -5 5 -10 11 -10 5 0 7 5 4 10 -3 6 -8 10 -11 10 -2 0
-4 -4 -4 -10z"/>
<path d="M4790 2559 c0 -5 5 -7 10 -4 6 3 10 8 10 11 0 2 -4 4 -10 4 -5 0 -10
-5 -10 -11z"/>
<path d="M4655 2540 c-4 -6 7 -10 27 -9 27 0 30 2 13 9 -27 12 -33 12 -40 0z"/>
<path d="M4998 2533 c7 -3 16 -2 19 1 4 3 -2 6 -13 5 -11 0 -14 -3 -6 -6z"/>
<path d="M5188 2533 c7 -3 16 -2 19 1 4 3 -2 6 -13 5 -11 0 -14 -3 -6 -6z"/>
<path d="M1439 2268 c-2 -18 -1 -51 2 -73 5 -32 6 -25 8 33 1 75 -4 96 -10 40z"/>
<path d="M1533 2293 c15 -2 37 -2 50 0 12 2 0 4 -28 4 -27 0 -38 -2 -22 -4z"/>
<path d="M1342 2243 l-2 -53 34 0 c36 0 46 17 38 67 -3 18 -6 20 -17 10 -9 -8
-10 -18 -3 -30 11 -22 3 -37 -22 -37 -15 0 -20 9 -23 48 l-3 47 -2 -52z"/>
<path d="M1706 2274 c-3 -9 -6 -33 -6 -54 0 -46 26 -68 60 -50 15 8 20 21 20
53 0 24 -5 48 -12 55 -17 17 -55 15 -62 -4z m52 -6 c32 -32 1 -116 -33 -88
-26 22 -14 100 15 100 3 0 11 -5 18 -12z"/>
<path d="M1825 2281 c-3 -6 -1 -11 4 -11 6 0 11 -20 11 -45 0 -25 5 -45 11
-45 14 0 7 102 -8 107 -6 2 -14 -1 -18 -6z"/>
<path d="M1900 2270 c-18 -33 -8 -81 20 -99 l24 -16 -23 32 c-22 29 -23 35
-11 63 16 38 41 36 54 -3 7 -20 7 -34 -2 -47 -16 -27 -15 -35 3 -20 19 16 19
77 1 96 -21 20 -54 17 -66 -6z"/>
<path d="M2096 2275 c-3 -8 0 -14 7 -12 7 1 14 -17 18 -48 l6 -50 1 63 c2 47
-1 62 -12 62 -8 0 -16 -7 -20 -15z"/>
<path d="M2181 2273 c0 -11 3 -13 6 -5 6 16 28 15 42 -2 10 -12 5 -22 -23 -54
-35 -38 -37 -52 -8 -52 9 0 12 6 8 16 -3 9 5 26 19 42 28 30 31 42 13 60 -19
19 -58 15 -57 -5z"/>
<path d="M2290 2274 c-12 -13 -10 -14 15 -2 22 10 29 10 33 0 2 -6 8 -12 13
-12 4 0 6 7 3 15 -8 20 -48 19 -64 -1z"/>
<path d="M2421 2249 c-17 -24 -31 -47 -31 -51 0 -4 14 -9 30 -9 17 -1 36 -2
42 -3 14 -1 12 83 -1 97 -5 5 -22 -11 -40 -34z m29 -24 c0 -18 -5 -25 -20 -25
-23 0 -26 14 -7 35 18 21 27 18 27 -10z"/>
<path d="M2600 2256 c0 -30 2 -33 25 -28 29 5 44 -20 25 -43 -10 -12 -9 -15 4
-15 13 0 17 7 14 33 -2 27 -8 33 -31 35 -38 5 -32 35 8 43 29 6 29 7 -7 8 -37
1 -38 0 -38 -33z"/>
<path d="M2711 2267 c-19 -35 -10 -77 19 -96 l25 -15 -19 21 c-21 26 -15 53
13 53 24 0 35 -28 19 -48 -11 -13 -10 -14 2 -10 8 2 16 16 18 31 3 21 -2 28
-22 33 -14 3 -30 3 -35 -1 -13 -8 -14 15 -2 34 8 12 14 13 37 2 24 -11 26 -10
14 3 -19 24 -55 20 -69 -7z"/>
<path d="M2835 2283 c47 -10 48 -12 33 -36 -22 -35 -38 -77 -30 -77 8 0 52 93
52 110 0 5 -17 9 -37 9 -21 -1 -29 -3 -18 -6z"/>
<path d="M2927 2277 c-3 -7 -3 -25 0 -39 3 -14 0 -29 -7 -33 -12 -8 5 -35 22
-35 6 0 5 6 -2 15 -16 19 -4 35 27 35 22 0 25 -4 21 -25 -3 -14 -2 -25 3 -25
4 0 7 26 6 58 -2 56 -3 57 -33 60 -20 2 -33 -2 -37 -11z m61 -18 c3 -17 -23
-33 -39 -23 -5 3 -9 14 -9 25 0 15 6 20 22 17 13 -2 24 -10 26 -19z"/>
<path d="M1210 2272 c0 -7 -9 -21 -20 -32 -25 -25 -13 -26 20 0 20 15 23 21
13 31 -10 10 -13 10 -13 1z"/>
<path d="M2332 2238 c-10 -13 -10 -17 3 -22 11 -4 14 -13 10 -26 -3 -11 -2
-20 3 -20 14 0 25 32 13 39 -5 3 -10 15 -12 25 -4 17 -5 17 -17 4z"/>
<path d="M1523 2233 c20 -2 54 -2 75 0 20 2 3 4 -38 4 -41 0 -58 -2 -37 -4z"/>
<path d="M1511 2206 c9 -8 99 -13 99 -5 0 5 -23 9 -52 9 -28 0 -49 -2 -47 -4z"/>
<path d="M1200 2175 c0 -8 4 -15 10 -15 5 0 7 7 4 15 -4 8 -8 15 -10 15 -2 0
-4 -7 -4 -15z"/>
<path d="M2280 2181 c0 -8 41 -23 47 -17 2 1 -8 8 -22 14 -14 6 -25 8 -25 3z"/>
<path d="M2600 2180 c0 -5 5 -10 11 -10 5 0 7 5 4 10 -3 6 -8 10 -11 10 -2 0
-4 -4 -4 -10z"/>
<path d="M1500 2170 c0 -5 4 -10 9 -10 6 0 13 5 16 10 3 6 -1 10 -9 10 -9 0
-16 -4 -16 -10z"/>
<path d="M1200 1981 c0 -25 6 -27 13 -6 4 8 2 17 -3 20 -6 4 -10 -3 -10 -14z"/>
<path d="M1973 1940 c0 -36 2 -50 4 -32 2 17 2 47 0 65 -2 17 -4 3 -4 -33z"/>
<path d="M2070 1980 c0 -14 6 -20 23 -19 18 1 18 2 4 6 -11 3 -16 11 -13 19 3
8 1 14 -4 14 -6 0 -10 -9 -10 -20z"/>
<path d="M2460 1980 c0 -11 2 -20 4 -20 2 0 6 9 9 20 3 11 1 20 -4 20 -5 0 -9
-9 -9 -20z"/>
<path d="M3015 1990 c-8 -13 -1 -24 14 -19 6 3 7 10 2 18 -6 10 -10 10 -16 1z"/>
<path d="M2647 1982 c6 -4 13 -28 16 -52 l4 -45 1 53 c2 44 -1 52 -15 52 -12
0 -14 -3 -6 -8z"/>
<path d="M2740 1974 c0 -8 5 -12 10 -9 6 3 10 10 10 16 0 5 -4 9 -10 9 -5 0
-10 -7 -10 -16z"/>
<path d="M2908 1983 c7 -3 16 -2 19 1 4 3 -2 6 -13 5 -11 0 -14 -3 -6 -6z"/>
<path d="M1508 1953 c7 -3 16 -2 19 1 4 3 -2 6 -13 5 -11 0 -14 -3 -6 -6z"/>
<path d="M2490 1940 c-12 -8 -9 -10 13 -10 16 0 26 4 22 10 -8 12 -16 12 -35
0z"/>
<path d="M2101 1914 c0 -11 3 -14 6 -6 3 7 2 16 -1 19 -3 4 -6 -2 -5 -13z"/>
<path d="M2746 1915 c-3 -9 0 -15 9 -15 9 0 12 6 9 15 -4 8 -7 15 -9 15 -2 0
-5 -7 -9 -15z"/>
<path d="M3014 1910 c0 -11 6 -20 12 -20 7 0 10 8 7 20 -3 11 -8 20 -12 20 -4
0 -7 -9 -7 -20z"/>
<path d="M2365 1900 c-4 -6 3 -10 14 -10 25 0 27 6 6 13 -8 4 -17 2 -20 -3z"/>
<path d="M1726 1711 c-4 -7 -5 -15 -2 -18 9 -9 19 4 14 18 -4 11 -6 11 -12 0z"/>
<path d="M1835 1710 c3 -5 10 -10 16 -10 5 0 9 5 9 10 0 6 -7 10 -16 10 -8 0
-12 -4 -9 -10z"/>
<path d="M1907 1695 c-4 -8 -2 -17 3 -20 6 -4 10 3 10 14 0 25 -6 27 -13 6z"/>
<path d="M2000 1701 c0 -6 4 -13 10 -16 6 -3 7 1 4 9 -7 18 -14 21 -14 7z"/>
<path d="M1208 1660 c13 -6 31 -6 45 0 18 7 14 9 -23 9 -37 0 -41 -2 -22 -9z"/>
<path d="M1321 1614 c0 -11 3 -14 6 -6 3 7 2 16 -1 19 -3 4 -6 -2 -5 -13z"/>
<path d="M1195 867 c-44 -38 -47 -170 -4 -216 19 -21 25 -21 343 -21 l323 0
24 26 c21 23 24 35 24 104 -1 69 -3 82 -25 104 l-23 26 -318 0 c-315 0 -318 0
-344 -23z m185 -99 l0 -58 -37 -2 -38 -1 38 -4 c55 -6 46 -25 -10 -21 -46 3
-48 4 -47 33 0 17 -6 35 -15 41 -12 10 -11 13 9 24 21 11 21 13 6 22 -28 16
-8 27 44 25 l50 -2 0 -57z m140 -9 c0 -68 -1 -70 -22 -64 -13 4 -32 16 -44 26
-15 14 -23 16 -32 7 -19 -19 -23 -5 -9 32 9 26 9 34 0 37 -25 9 -12 22 25 26
90 9 82 15 82 -64z m86 57 c16 -13 17 -18 6 -35 -10 -18 -10 -21 3 -21 10 0
15 10 15 35 0 19 5 35 10 35 6 0 10 -9 10 -19 0 -11 6 -21 13 -24 10 -4 10 -7
0 -18 -7 -7 -13 -30 -13 -51 l0 -38 -44 0 c-31 0 -46 5 -50 16 -10 25 -7 34 9
34 8 0 15 -4 15 -10 0 -5 11 -10 25 -10 16 0 25 6 25 15 0 11 -12 15 -44 15
-25 0 -48 5 -51 10 -3 6 1 10 9 10 14 0 14 3 4 21 -11 17 -10 22 6 35 11 8 23
14 26 14 3 0 15 -6 26 -14z m192 -18 c-2 -19 -11 -24 -48 -29 l-45 -6 43 -1
c30 -2 42 -6 39 -14 -2 -7 2 -21 11 -30 14 -17 11 -18 -51 -18 -38 0 -67 4
-67 10 0 6 4 10 9 10 6 0 7 16 4 35 l-6 35 44 2 c41 1 41 2 9 5 -61 7 -58 23
4 23 54 0 57 -1 54 -22z"/>
<path d="M1318 763 c7 -3 16 -2 19 1 4 3 -2 6 -13 5 -11 0 -14 -3 -6 -6z"/>
<path d="M1445 790 c-3 -5 -2 -10 4 -10 5 0 13 5 16 10 3 6 2 10 -4 10 -5 0
-13 -4 -16 -10z"/>
<path d="M1568 793 c7 -3 16 -2 19 1 4 3 -2 6 -13 5 -11 0 -14 -3 -6 -6z"/>
<path d="M1735 730 c3 -5 8 -10 11 -10 2 0 4 5 4 10 0 6 -5 10 -11 10 -5 0 -7
-4 -4 -10z"/>
<path d="M4060 805 c0 -8 5 -15 10 -15 6 0 10 7 10 15 0 8 -4 15 -10 15 -5 0
-10 -7 -10 -15z"/>
<path d="M4998 813 c7 -3 16 -2 19 1 4 3 -2 6 -13 5 -11 0 -14 -3 -6 -6z"/>
<path d="M4351 794 c0 -11 3 -14 6 -6 3 7 2 16 -1 19 -3 4 -6 -2 -5 -13z"/>
<path d="M4501 794 c0 -11 3 -14 6 -6 3 7 2 16 -1 19 -3 4 -6 -2 -5 -13z"/>
<path d="M4785 800 c-3 -5 -1 -10 4 -10 6 0 11 5 11 10 0 6 -2 10 -4 10 -3 0
-8 -4 -11 -10z"/>
<path d="M4425 780 c3 -5 8 -10 11 -10 2 0 4 5 4 10 0 6 -5 10 -11 10 -5 0 -7
-4 -4 -10z"/>
<path d="M4942 760 c0 -14 2 -19 5 -12 2 6 2 18 0 25 -3 6 -5 1 -5 -13z"/>
<path d="M4999 764 c19 -3 31 -13 34 -25 4 -15 4 -14 3 3 -1 18 -8 24 -33 26
-31 2 -32 2 -4 -4z"/>
<path d="M5211 765 c1 -19 18 -51 18 -35 0 8 -4 22 -9 30 -5 8 -9 11 -9 5z"/>
<path d="M4200 745 c0 -8 2 -15 4 -15 2 0 6 7 10 15 3 8 1 15 -4 15 -6 0 -10
-7 -10 -15z"/>
<path d="M4790 730 c0 -5 5 -10 10 -10 6 0 10 5 10 10 0 6 -4 10 -10 10 -5 0
-10 -4 -10 -10z"/>
<path d="M4491 714 c0 -11 3 -14 6 -6 3 7 2 16 -1 19 -3 4 -6 -2 -5 -13z"/>
<path d="M4655 710 c-4 -6 7 -10 27 -9 27 0 30 2 13 9 -27 12 -33 12 -40 0z"/>
<path d="M4898 703 c7 -3 16 -2 19 1 4 3 -2 6 -13 5 -11 0 -14 -3 -6 -6z"/>
<path d="M4998 703 c7 -3 16 -2 19 1 4 3 -2 6 -13 5 -11 0 -14 -3 -6 -6z"/>
<path d="M5188 703 c7 -3 16 -2 19 1 4 3 -2 6 -13 5 -11 0 -14 -3 -6 -6z"/>
<path d="M1439 438 c-2 -18 -1 -51 2 -73 5 -32 6 -25 8 33 1 75 -4 96 -10 40z"/>
<path d="M1533 463 c15 -2 37 -2 50 0 12 2 0 4 -28 4 -27 0 -38 -2 -22 -4z"/>
<path d="M1278 430 l4 -30 -58 -2 c-36 -1 -46 -3 -26 -5 29 -4 32 -7 33 -41
l2 -37 6 35 c5 28 11 36 31 38 23 3 25 7 22 37 -2 19 -7 35 -11 35 -4 0 -6
-13 -3 -30z"/>
<path d="M1342 413 l-2 -53 34 0 c36 0 46 17 38 67 -3 18 -6 20 -17 10 -9 -8
-10 -18 -3 -30 11 -22 3 -37 -22 -37 -15 0 -20 9 -23 48 l-3 47 -2 -52z"/>
<path d="M1712 448 c-7 -7 -12 -31 -12 -55 0 -34 5 -45 23 -54 21 -12 21 -11
5 8 -36 40 -11 124 27 93 18 -15 20 -71 3 -89 -11 -11 -10 -13 2 -9 19 6 26
84 9 104 -14 17 -41 18 -57 2z"/>
<path d="M1824 449 c-4 -7 -2 -15 4 -17 7 -2 12 -21 12 -43 0 -21 5 -39 11
-39 14 0 7 102 -8 107 -6 2 -15 -2 -19 -8z"/>
<path d="M1901 437 c-18 -34 -10 -77 19 -96 l24 -16 -23 32 c-22 29 -23 35
-11 63 16 38 41 36 54 -3 7 -20 7 -34 -2 -47 -16 -27 -15 -35 3 -20 19 16 19
77 1 96 -22 21 -51 17 -65 -9z"/>
<path d="M2099 458 c0 -2 -3 -28 -5 -59 -4 -52 -2 -57 18 -62 22 -6 22 -5 4 8
-23 17 -14 45 14 45 25 0 38 -29 19 -41 -11 -7 -11 -9 3 -9 17 0 19 26 9 113
-1 6 -60 11 -62 5z m54 -22 c9 -22 -19 -42 -37 -26 -19 15 -10 40 14 40 10 0
20 -6 23 -14z"/>
<path d="M2215 453 c46 -10 46 -11 20 -63 -14 -27 -21 -50 -17 -50 8 0 62 98
62 113 0 4 -19 6 -42 6 -24 -1 -34 -3 -23 -6z"/>
<path d="M2313 440 c-20 -32 -14 -100 9 -100 5 0 6 5 3 10 -13 22 -13 69 0 86
12 17 17 17 35 6 19 -11 21 -11 18 0 -7 22 -52 21 -65 -2z"/>
<path d="M2427 453 c-4 -3 -7 -18 -7 -33 0 -24 3 -26 29 -22 33 5 49 -21 29
-46 -11 -13 -10 -14 2 -10 9 3 15 17 15 34 0 24 -5 30 -29 34 -41 7 -44 27 -4
39 l33 9 -31 1 c-17 1 -34 -2 -37 -6z"/>
<path d="M2649 438 c-10 -18 -9 -20 5 -15 12 5 16 0 16 -23 0 -32 -25 -41 -48
-18 -9 9 -12 8 -12 -5 0 -11 8 -17 23 -17 13 0 28 -5 33 -10 8 -8 15 -6 23 4
8 10 9 16 1 21 -5 3 -10 24 -10 46 0 43 -13 51 -31 17z"/>
<path d="M2737 453 c-4 -3 -7 -11 -7 -17 0 -6 5 -5 12 2 19 19 48 15 48 -7 0
-11 -5 -23 -10 -26 -6 -4 -4 -12 5 -22 13 -12 13 -18 3 -31 -11 -13 -10 -14 2
-10 16 5 21 70 7 101 -8 17 -47 24 -60 10z"/>
<path d="M2849 443 c-13 -15 -12 -15 8 -2 20 12 25 12 39 -3 15 -14 13 -19
-20 -55 -20 -22 -33 -43 -29 -47 12 -12 21 -6 33 24 7 17 16 30 21 30 14 0 21
41 9 55 -16 20 -44 19 -61 -2z"/>
<path d="M2964 449 c-3 -6 -2 -14 4 -18 6 -3 12 -27 15 -51 3 -38 4 -36 5 18
2 58 -7 77 -24 51z"/>
<path d="M1517 403 c18 -2 50 -2 70 0 21 2 7 4 -32 4 -38 0 -55 -2 -38 -4z"/>
<path d="M2349 403 c19 -4 22 -10 19 -34 -5 -31 6 -40 16 -13 12 30 -3 54 -32
53 -25 -2 -25 -2 -3 -6z"/>
<path d="M1511 376 c9 -8 99 -13 99 -5 0 5 -23 9 -52 9 -28 0 -49 -2 -47 -4z"/>
<path d="M2420 352 c0 -6 9 -12 20 -15 11 -3 20 -3 20 -1 0 2 -9 8 -20 14 -11
6 -20 7 -20 2z"/>
<path d="M2730 350 c0 -5 5 -10 11 -10 5 0 7 5 4 10 -3 6 -8 10 -11 10 -2 0
-4 -4 -4 -10z"/>
<path d="M1500 340 c0 -5 4 -10 9 -10 6 0 13 5 16 10 3 6 -1 10 -9 10 -9 0
-16 -4 -16 -10z"/>
<path d="M1200 151 c0 -25 6 -27 13 -6 4 8 2 17 -3 20 -6 4 -10 -3 -10 -14z"/>
<path d="M1973 130 c0 -25 2 -35 4 -22 2 12 2 32 0 45 -2 12 -4 2 -4 -23z"/>
<path d="M2070 150 c0 -11 2 -20 4 -20 2 0 6 9 9 20 3 11 1 20 -4 20 -5 0 -9
-9 -9 -20z"/>
<path d="M2460 150 c0 -11 4 -20 8 -20 4 0 8 9 8 20 0 11 -4 20 -8 20 -4 0 -8
-9 -8 -20z"/>
<path d="M3015 160 c-8 -13 -1 -24 14 -19 6 3 7 10 2 18 -6 10 -10 10 -16 1z"/>
<path d="M2648 148 c5 -7 12 -24 15 -38 3 -18 5 -15 6 13 1 28 -3 37 -15 37
-12 0 -14 -3 -6 -12z"/>
<path d="M2740 144 c0 -8 5 -12 10 -9 6 3 10 10 10 16 0 5 -4 9 -10 9 -5 0
-10 -7 -10 -16z"/>
<path d="M1508 123 c7 -3 16 -2 19 1 4 3 -2 6 -13 5 -11 0 -14 -3 -6 -6z"/>
<path d="M2495 110 c-3 -5 1 -10 9 -10 9 0 16 5 16 10 0 6 -4 10 -9 10 -6 0
-13 -4 -16 -10z"/>
</g>
</svg>
