<?xml version="1.0" standalone="no"?>
<!DOCTYPE svg PUBLIC "-//W3C//DTD SVG 20010904//EN"
 "http://www.w3.org/TR/2001/REC-SVG-20010904/DTD/svg10.dtd">
<svg version="1.0" xmlns="http://www.w3.org/2000/svg"
 width="678.000000pt" height="826.000000pt" viewBox="0 0 678.000000 826.000000"
 preserveAspectRatio="xMidYMid meet">

<g transform="translate(0.000000,826.000000) scale(0.100000,-0.100000)"
fill="#000000" stroke="none">
<path d="M0 4130 l0 -4130 440 0 440 0 0 2370 0 2369 23 64 c34 93 73 155 136
215 66 64 171 117 261 131 92 15 4014 15 4095 0 191 -35 343 -176 399 -371 15
-51 16 -267 16 -2417 l0 -2361 485 0 485 0 0 4130 0 4130 -3390 0 -3390 0 0
-4130z m2298 3355 c2 -94 0 -112 -14 -122 -16 -12 -16 -14 -1 -31 24 -26 21
-49 -9 -77 -23 -22 -37 -25 -96 -25 -89 0 -128 20 -128 66 0 39 23 60 78 69
34 5 42 11 42 28 0 16 -3 18 -9 9 -7 -12 -14 -11 -39 2 -17 8 -32 21 -34 28
-3 8 -16 1 -37 -20 -36 -36 -49 -39 -58 -16 -3 9 6 27 23 45 20 21 30 43 34
77 4 39 9 48 28 50 19 3 22 -1 22 -34 0 -37 39 -104 61 -104 5 0 9 33 9 74 0
50 4 75 13 78 25 10 37 -4 37 -43 0 -28 4 -39 15 -39 11 0 15 11 15 43 0 48 6
59 30 55 12 -3 16 -23 18 -113z m330 -3 c3 -107 2 -112 -18 -112 -17 0 -20 6
-20 49 0 52 -8 61 -55 61 -51 0 -38 37 15 42 33 3 35 6 38 41 3 30 7 37 20 35
15 -3 17 -20 20 -116z m330 41 c3 -70 4 -72 30 -75 16 -2 28 -10 30 -20 3 -14
-3 -18 -27 -18 l-31 0 0 -90 c0 -89 0 -90 -25 -90 -23 0 -25 4 -25 45 l0 46
-32 -5 c-74 -12 -169 -17 -188 -11 -40 13 -18 45 31 45 16 0 19 7 19 50 0 47
2 50 25 50 23 0 25 -3 25 -50 l0 -50 60 2 60 3 0 116 c0 64 3 119 7 123 4 4
14 5 23 4 11 -3 16 -20 18 -75z m285 63 c3 -8 22 -16 44 -18 30 -2 38 -7 38
-23 0 -13 -8 -21 -22 -23 -23 -3 -23 -3 -3 -25 11 -11 20 -26 20 -32 0 -13
-38 -50 -60 -58 -8 -3 9 -6 38 -6 l52 -1 0 84 c0 92 5 116 25 116 17 0 25 -23
25 -71 0 -35 2 -39 26 -39 21 0 25 -4 22 -22 -2 -15 -11 -24 -25 -26 -25 -4
-25 -6 -27 -147 -1 -53 -3 -60 -21 -60 -15 0 -21 8 -23 32 l-3 32 -97 3 c-82
3 -97 6 -100 20 -3 15 9 18 100 20 64 2 101 7 98 13 -3 6 -12 9 -20 7 -8 -2
-57 -6 -107 -9 -67 -4 -97 -2 -108 7 -22 18 -9 30 35 30 21 0 42 5 45 10 3 6
-2 10 -11 10 -24 0 -54 29 -54 53 0 11 7 29 17 39 15 17 15 18 -6 18 -17 0
-22 5 -19 23 2 17 11 23 38 25 19 2 39 10 43 18 10 18 33 18 40 0z m515 -124
c2 -115 0 -133 -14 -139 -27 -10 -34 17 -34 134 0 123 5 145 29 141 14 -3 16
-23 19 -136z m610 110 c3 -19 9 -22 48 -22 38 0 45 -3 42 -17 -2 -12 -14 -19
-36 -21 l-33 -3 25 -24 c33 -30 33 -69 1 -100 -36 -37 -120 -31 -147 9 -18 26
-8 74 20 95 l27 20 -37 1 c-31 0 -38 4 -38 20 0 16 7 20 35 20 28 0 38 5 47
25 14 31 42 29 46 -3z m156 12 c3 -9 6 -36 6 -60 0 -40 2 -44 25 -44 18 0 25
-5 25 -20 0 -15 -7 -20 -25 -20 -22 0 -24 -4 -27 -57 -3 -51 -6 -58 -25 -61
-23 -3 -23 -3 -23 131 0 73 3 137 7 140 11 12 31 7 37 -9z m454 -127 l3 -138
-23 3 c-21 3 -23 9 -26 66 -3 61 -3 62 -32 62 -25 0 -29 -4 -32 -32 l-3 -33
-87 -3 -88 -3 0 96 c0 94 1 96 23 93 16 -2 23 -11 25 -30 3 -25 7 -28 43 -28
35 0 39 3 39 25 0 29 28 45 41 24 5 -8 9 -24 9 -36 0 -19 6 -23 30 -23 29 0
30 2 30 43 0 48 6 59 30 55 12 -3 15 -26 18 -141z m352 -42 c0 -178 -1 -185
-20 -185 -19 0 -20 7 -20 178 0 98 3 182 7 185 3 4 12 7 20 7 10 0 13 -38 13
-185z m-1254 144 c41 -39 26 -76 -41 -100 l-40 -14 68 -3 c59 -3 67 -5 67 -23
0 -19 -6 -19 -167 -17 -142 3 -168 5 -168 18 0 12 17 16 75 20 l75 5 -48 14
c-59 17 -78 47 -57 86 18 34 60 45 144 40 53 -3 74 -9 92 -26z m1182 23 c9 -7
12 -47 10 -168 -3 -156 -3 -159 -25 -162 -22 -3 -23 -1 -23 78 0 72 -2 81 -17
78 -10 -2 -20 -14 -23 -28 -17 -85 -101 -102 -143 -31 -23 39 -22 130 1 170
21 37 62 57 89 43 29 -16 51 -45 55 -72 2 -14 10 -25 18 -25 11 0 16 13 18 50
4 75 10 85 40 67z m-3423 -72 l0 -65 -119 -3 c-134 -3 -136 -2 -136 65 0 75
-2 74 134 71 l121 -3 0 -65z m-335 40 c0 -17 -7 -20 -51 -20 -43 0 -50 -3 -47
-17 2 -10 29 -31 61 -47 51 -26 56 -31 43 -44 -18 -18 -50 -11 -101 24 -31 21
-43 24 -55 15 -38 -28 -99 -53 -114 -48 -28 11 -18 26 34 52 27 14 54 34 60
45 10 19 8 20 -45 20 -48 0 -55 2 -55 20 0 19 7 20 135 20 128 0 135 -1 135
-20z m960 -5 c0 -35 24 -79 56 -104 16 -13 24 -27 20 -36 -8 -22 -28 -18 -65
13 l-33 28 -33 -33 c-35 -35 -62 -42 -71 -19 -3 9 11 29 35 51 36 33 41 43 41
81 0 40 2 44 25 44 20 0 25 -5 25 -25z m1172 -5 c27 -28 30 -36 25 -73 -12
-85 -103 -117 -166 -58 -67 62 -23 161 71 161 31 0 46 -7 70 -30z m-768 14
c11 -4 16 -19 16 -53 0 -81 -11 -121 -31 -121 -21 0 -21 1 -19 83 l1 57 -75 0
c-59 0 -76 3 -76 14 0 8 6 17 13 19 18 8 152 8 171 1z m-989 -159 c0 -18 -8
-20 -67 -23 l-67 -3 -3 -32 c-2 -24 -8 -32 -23 -32 -15 0 -21 8 -23 33 l-3 32
-69 0 c-69 0 -87 8 -76 36 5 12 32 14 168 12 155 -3 163 -4 163 -23z m-342
-11 c3 -3 3 -12 0 -20 -4 -10 -24 -14 -74 -14 l-68 0 -3 -57 c-3 -50 -6 -58
-23 -58 -17 0 -20 8 -23 58 l-3 57 -69 0 c-63 0 -70 2 -70 20 0 19 7 20 163
20 90 0 166 -3 170 -6z m2555 -46 l3 -48 -105 0 c-64 0 -106 -4 -106 -10 0 -6
43 -10 110 -10 103 0 110 -1 110 -20 0 -19 -7 -20 -130 -20 l-130 0 0 50 0 50
100 0 c60 0 100 4 100 10 0 6 -39 10 -98 10 -54 0 -101 3 -105 6 -3 3 -3 12 0
20 4 12 29 14 127 12 l121 -3 3 -47z m-1488 19 c20 -10 26 -21 28 -52 3 -35
-1 -42 -27 -58 -43 -25 -154 -24 -192 4 -34 24 -39 67 -11 92 40 36 140 43
202 14z m960 -42 l0 -45 105 0 c98 0 105 -1 105 -20 0 -19 -7 -20 -125 -20
l-125 0 0 65 c0 58 2 65 20 65 17 0 20 -7 20 -45z m1228 -2 l3 -43 93 0 c97 0
108 -3 99 -26 -4 -11 -31 -14 -124 -14 l-119 0 0 66 c0 62 1 65 23 62 18 -2
23 -10 25 -45z m-3158 -3 l5 -35 108 -3 c96 -2 108 -5 105 -20 -3 -15 -19 -17
-127 -20 -93 -2 -126 1 -133 10 -10 16 -11 92 -1 102 16 16 38 -1 43 -34z
m2708 -2 l3 -38 100 0 c90 0 100 -2 97 -17 -3 -16 -18 -18 -126 -21 l-122 -3
0 61 c0 58 1 61 23 58 18 -2 23 -10 25 -40z m-3718 -388 c5 -23 11 -25 63 -28
l57 -3 0 -39 0 -40 -55 0 c-30 0 -55 -4 -55 -10 0 -5 5 -10 12 -10 6 0 21 -9
33 -20 20 -18 23 -19 35 -5 7 8 21 15 31 15 17 0 19 8 19 69 0 80 10 94 67 89
l38 -3 3 -188 2 -188 -52 3 -53 3 -3 63 c-2 52 -6 62 -21 62 -13 0 -21 -10
-25 -35 -5 -24 -18 -43 -43 -62 -30 -23 -45 -27 -103 -27 -58 0 -73 4 -103 27
-38 29 -55 75 -43 122 7 27 54 75 73 75 7 0 13 5 13 10 0 6 -25 10 -55 10
l-55 0 0 40 0 40 55 0 c46 0 55 3 55 18 0 29 22 43 65 40 32 -3 40 -7 45 -28z
m1639 16 c8 -9 11 -68 9 -187 l-3 -174 -55 0 -55 0 -3 165 c-3 210 -4 210 52
210 25 0 48 -6 55 -14z m1399 -118 l3 -128 37 0 c53 0 64 -11 60 -56 -3 -39
-3 -39 -50 -42 l-48 -3 -2 -167 -3 -167 -52 -3 -53 -3 0 344 c0 189 3 347 7
351 4 4 28 6 53 4 l45 -3 3 -127z m1310 -221 l2 -348 -52 3 -53 3 -3 192 -2
192 -88 3 -87 3 -3 42 -3 42 88 3 88 3 3 94 c1 52 8 101 14 108 7 9 27 13 52
11 l41 -3 3 -348z m650 86 l2 -263 -50 0 -50 0 0 258 c0 142 3 262 7 266 4 4
25 6 48 4 l40 -3 3 -262z m627 245 c3 -13 4 -169 3 -348 l-3 -325 -50 0 -50 0
-3 177 -2 177 -58 3 -57 3 -3 42 -3 42 58 3 58 3 3 110 c1 61 4 116 7 123 3 7
22 12 49 12 39 0 46 -3 51 -22z m-5245 -278 l-1 -290 -184 0 c-117 0 -185 -4
-185 -10 0 -6 72 -10 195 -10 l195 0 0 -39 c0 -26 -5 -41 -16 -45 -9 -3 -114
-6 -234 -6 -120 0 -225 3 -234 6 -13 5 -16 23 -16 95 l0 89 185 0 c117 0 185
4 185 10 0 6 -64 10 -172 10 -95 0 -179 4 -186 9 -8 5 -12 22 -10 42 l3 34
190 3 190 2 -3 195 -3 195 51 0 50 0 0 -290z m4478 38 l2 -248 -50 0 -50 0 0
125 0 125 -34 0 c-42 0 -58 19 -54 62 3 31 5 33 46 36 l42 3 0 68 c0 37 3 71
7 75 4 4 25 6 48 4 l40 -3 3 -247z m-3488 201 c95 -50 113 -175 36 -252 -51
-51 -125 -68 -209 -46 -76 19 -127 83 -127 157 0 54 20 93 66 128 61 47 160
52 234 13z m905 -24 l0 -40 -92 -3 c-102 -3 -109 -9 -73 -55 24 -31 61 -50
135 -72 30 -8 55 -17 55 -19 0 -2 -7 -20 -15 -40 -13 -30 -20 -36 -46 -36 -52
0 -127 33 -177 76 l-47 41 -46 -40 c-51 -44 -126 -77 -174 -77 -24 0 -35 7
-49 31 -24 41 -16 56 36 64 73 12 158 72 158 112 0 9 -27 13 -92 15 l-93 3 -3
28 c-7 59 -16 58 265 55 l258 -3 0 -40z m-1290 -85 l0 -115 -192 -3 -193 -2 0
-30 0 -30 198 -2 197 -3 3 -42 3 -43 -106 0 -106 0 3 -42 3 -43 130 -5 130 -5
3 -42 3 -43 -321 0 -321 0 3 43 3 42 128 3 127 3 0 44 0 45 -95 0 -96 0 3 118
3 117 190 5 190 5 3 28 3 27 -195 0 -196 0 0 45 0 45 248 -2 247 -3 0 -115z
m2693 111 c8 -5 12 -23 10 -47 l-3 -39 -185 -5 c-183 -5 -185 -5 -188 -27 l-3
-23 164 0 c91 0 172 -3 181 -6 11 -4 16 -19 16 -45 l0 -39 -177 -2 -178 -3 0
-30 0 -30 190 -5 190 -5 3 -31 c5 -53 -4 -55 -259 -52 l-234 3 -3 189 c-2 145
1 191 10 198 17 10 449 10 466 -1z m953 -71 c6 -88 29 -141 75 -177 19 -14 34
-32 34 -40 0 -23 -40 -73 -58 -73 -9 0 -37 22 -62 49 l-45 48 -23 -36 c-13
-20 -39 -47 -59 -61 l-36 -24 -28 34 c-16 19 -29 38 -29 44 0 5 19 25 41 44
57 49 79 100 79 188 0 39 3 74 7 78 4 4 28 6 53 4 l45 -3 6 -75z m769 25 l0
-44 -107 -3 -108 -3 -3 -47 -3 -47 98 -3 98 -3 0 -40 0 -40 -95 -5 -95 -5 0
-50 0 -50 125 0 125 0 3 -42 3 -41 -58 -8 c-32 -4 -114 -8 -183 -8 l-125 -1
-3 220 c-1 121 0 230 3 243 5 22 8 22 165 22 l160 0 0 -45z m-2512 -7 c-3 -36
-7 -43 -28 -48 l-25 -6 0 -134 0 -135 38 3 37 4 0 -41 c0 -30 -5 -43 -20 -51
-13 -7 -97 -12 -213 -13 l-192 -2 0 40 c0 38 2 40 35 45 l35 5 0 140 0 140
-27 3 c-26 3 -28 7 -28 48 l0 44 196 0 195 0 -3 -42z m1020 -143 c1 -99 6
-183 10 -186 4 -4 61 -1 127 6 66 7 123 10 127 6 3 -3 8 -22 10 -41 5 -52 -21
-60 -217 -67 l-165 -6 0 230 c0 126 3 233 7 237 4 4 28 6 53 4 l45 -3 3 -180z
m-1573 -170 l0 -40 -132 -3 -132 -3 -3 -112 -3 -112 -50 0 -50 0 -3 113 -3
112 -129 0 -130 0 0 45 0 45 318 -2 317 -3 0 -40z m-1055 -5 l0 -30 124 0 124
0 6 31 c6 29 7 30 58 27 l53 -3 0 -140 0 -140 -235 0 -235 0 -3 120 c-4 164
-3 165 58 165 49 0 50 -1 50 -30z m3354 -36 c3 -9 6 -42 6 -75 l0 -59 191 0
190 0 -3 -42 -3 -43 -245 0 -245 0 -3 109 c-3 123 -2 126 64 126 29 0 44 -5
48 -16z m-874 -109 l0 -45 -315 0 -315 0 0 45 0 45 315 0 315 0 0 -45z"/>
<path d="M2227 7453 c-3 -4 -7 -26 -9 -48 -2 -34 0 -40 17 -43 18 -3 20 2 17
40 -4 43 -15 67 -25 51z"/>
<path d="M2130 7323 c-71 -13 -41 -53 40 -53 58 0 95 20 74 39 -12 12 -82 20
-114 14z"/>
<path d="M3192 7478 c-20 -20 -13 -28 26 -28 45 0 56 8 41 27 -14 16 -51 17
-67 1z"/>
<path d="M4316 7454 c-21 -21 -20 -31 5 -44 32 -18 69 -4 69 24 0 36 -46 49
-74 20z"/>
<path d="M4740 7445 c0 -22 4 -25 40 -25 36 0 40 3 40 25 0 23 -4 25 -40 25
-36 0 -40 -2 -40 -25z"/>
<path d="M3903 7540 c-47 -19 -12 -50 56 -50 40 0 91 17 91 30 0 25 -102 38
-147 20z"/>
<path d="M5080 7499 c-23 -42 -8 -149 20 -149 23 0 40 34 40 81 0 80 -34 118
-60 68z"/>
<path d="M1637 7533 c-4 -3 -7 -17 -7 -30 0 -22 3 -23 80 -23 l80 0 0 30 0 30
-73 0 c-41 0 -77 -3 -80 -7z"/>
<path d="M3527 7512 c-24 -27 -21 -59 8 -78 23 -15 27 -15 50 0 30 20 33 56 7
79 -24 22 -45 21 -65 -1z"/>
<path d="M2440 7320 c-12 -7 -12 -13 -4 -27 15 -25 111 -30 139 -8 20 15 20
15 1 30 -22 17 -112 20 -136 5z"/>
<path d="M530 6705 c-16 -19 -4 -52 20 -58 30 -8 59 3 65 25 9 26 -12 48 -45
48 -15 0 -33 -7 -40 -15z"/>
<path d="M1840 6813 c-42 -18 -53 -80 -20 -113 29 -29 92 -30 123 -3 21 20 23
86 2 103 -17 14 -83 22 -105 13z"/>
<path d="M3290 6645 l0 -145 25 0 25 0 0 145 0 145 -25 0 -25 0 0 -145z"/>
<path d="M1902 6373 c3 -16 18 -18 126 -21 117 -2 122 -2 122 18 0 19 -6 20
-126 20 -114 0 -125 -2 -122 -17z"/>
<path d="M2312 3223 c2 -73 2 -74 5 -18 2 33 7 63 11 67 4 4 24 -7 45 -25 31
-27 39 -41 46 -87 l9 -55 1 57 c1 56 1 56 -46 91 -78 55 -73 57 -71 -30z"/>
<path d="M2690 3181 c0 -28 5 -51 10 -51 6 0 10 20 10 44 0 25 -4 48 -10 51
-6 4 -10 -13 -10 -44z"/>
<path d="M3087 3223 c-11 -10 -8 -93 3 -93 6 0 10 23 10 50 0 51 -1 55 -13 43z"/>
<path d="M3538 3224 c-12 -11 -10 -184 2 -184 6 0 10 20 10 45 0 31 5 47 18
54 16 10 16 10 0 11 -13 0 -18 11 -20 41 -2 22 -6 37 -10 33z"/>
<path d="M3950 3200 c0 -27 -3 -30 -30 -30 -38 0 -40 -18 -2 -22 25 -3 27 -7
33 -58 5 -46 6 -38 7 43 1 53 0 97 -3 97 -3 0 -5 -13 -5 -30z"/>
<path d="M4350 3195 c0 -22 -6 -38 -17 -44 -17 -10 -17 -10 -1 -11 13 0 18
-11 21 -52 2 -32 4 -13 5 45 1 53 0 97 -3 97 -3 0 -5 -16 -5 -35z"/>
<path d="M2565 3210 c-16 -7 -11 -9 20 -9 29 -1 36 2 25 9 -17 11 -19 11 -45
0z"/>
<path d="M2650 3196 c-9 -26 -3 -66 11 -66 5 0 9 20 9 45 0 50 -6 57 -20 21z"/>
<path d="M4110 3200 c0 -11 -5 -20 -11 -20 -8 0 -8 -4 -1 -12 6 -7 12 -26 15
-43 2 -16 5 -2 6 33 0 34 -1 62 -4 62 -3 0 -5 -9 -5 -20z"/>
<path d="M4150 3155 c0 -37 4 -65 10 -65 6 0 10 28 10 65 0 37 -4 65 -10 65
-6 0 -10 -28 -10 -65z"/>
<path d="M2823 3203 c41 -3 57 -8 57 -18 0 -11 -14 -15 -55 -15 -54 0 -55 0
-55 -30 0 -25 4 -30 25 -30 18 0 25 -5 25 -19 0 -15 -8 -21 -37 -24 -21 -2 0
-4 47 -4 52 0 71 2 50 6 -45 8 -54 38 -13 44 16 2 6 5 -24 6 -46 1 -53 4 -53
21 0 17 7 20 50 20 47 0 50 2 50 25 0 24 -2 25 -62 23 l-63 -2 58 -3z"/>
<path d="M2955 3190 c-10 -30 12 -52 49 -48 27 3 31 7 31 33 0 27 -3 30 -37
33 -30 3 -38 -1 -43 -18z m70 -15 c0 -31 -49 -28 -53 3 -3 20 0 23 25 20 20
-2 28 -8 28 -23z"/>
<path d="M3195 3201 l30 -7 -29 -27 c-32 -29 -24 -36 12 -11 21 14 25 14 47 0
13 -9 30 -16 37 -16 7 0 1 8 -14 18 -16 9 -28 22 -28 29 0 6 12 14 28 16 15 2
-4 4 -43 4 -46 1 -60 -2 -40 -6z"/>
<path d="M3415 3145 l0 -66 38 3 39 3 1 63 2 62 -40 0 -40 0 0 -65z m53 -6
c-2 -24 -7 -44 -13 -44 -12 0 -19 69 -10 93 11 29 26 -4 23 -49z"/>
<path d="M3630 3160 l0 -50 63 2 62 1 -55 6 c-40 4 -55 10 -55 21 0 11 15 17
50 21 l50 6 -53 1 c-71 3 -65 25 9 33 l54 6 -62 1 -63 2 0 -50z"/>
<path d="M4040 3190 c0 -12 -7 -32 -16 -45 -9 -14 -12 -25 -6 -25 6 0 14 5 18
11 3 6 17 8 32 4 25 -6 26 -6 9 13 -9 10 -17 28 -17 40 0 12 -4 22 -10 22 -5
0 -10 -9 -10 -20z"/>
<path d="M4220 3145 l0 -65 43 1 42 2 -35 6 c-46 8 -50 43 -5 52 30 7 30 7 3
8 -51 2 -47 47 5 54 27 3 25 4 -10 5 l-43 2 0 -65z"/>
<path d="M3814 3187 c-3 -8 -4 -34 -2 -58 3 -41 5 -44 35 -47 18 -2 41 2 50 8
14 9 11 10 -19 5 l-38 -6 0 50 c0 49 -15 76 -26 48z"/>
<path d="M2562 3178 c-7 -7 -12 -19 -12 -27 1 -14 3 -13 14 2 7 9 21 17 30 17
24 0 19 -28 -6 -33 l-23 -4 23 -2 c27 -1 39 23 22 44 -15 18 -32 19 -48 3z"/>
<path d="M2310 3110 c0 -5 5 -10 11 -10 5 0 7 5 4 10 -3 6 -8 10 -11 10 -2 0
-4 -4 -4 -10z"/>
<path d="M2620 3103 c71 -6 80 -17 20 -23 -42 -4 -56 -9 -58 -22 -3 -16 5 -18
65 -16 l68 2 -58 3 c-70 5 -67 23 4 23 43 0 50 3 47 18 -3 14 -15 17 -68 18
-38 1 -46 -1 -20 -3z"/>
<path d="M2987 3104 c-4 -4 -7 -20 -7 -36 0 -28 1 -28 60 -28 l60 0 0 37 c0
29 -3 34 -12 25 -15 -15 -85 -16 -90 -1 -2 5 -7 7 -11 3z m93 -39 c0 -11 -11
-15 -40 -15 -29 0 -40 4 -40 15 0 11 11 15 40 15 29 0 40 -4 40 -15z"/>
<path d="M3190 3101 c29 -5 36 -11 41 -36 l7 -30 1 32 c1 29 4 32 39 36 20 2
1 4 -43 4 -50 0 -67 -2 -45 -6z"/>
<path d="M2395 3090 c-18 -7 -18 -8 8 -15 15 -4 27 -12 27 -18 0 -6 3 -8 6 -4
3 3 0 14 -7 25 -10 14 -20 17 -34 12z"/>
<path d="M4040 3065 c0 -24 2 -25 68 -23 64 2 65 2 13 5 -42 3 -54 8 -58 24
-8 27 -23 24 -23 -6z"/>
<path d="M3036 1041 c-3 -4 1 -34 9 -65 8 -31 15 -59 15 -61 0 -3 4 -5 9 -5
10 0 31 77 31 114 0 22 -5 26 -29 26 -17 0 -32 -4 -35 -9z"/>
<path d="M3576 1041 c-3 -5 1 -31 9 -57 8 -27 15 -60 16 -74 1 -24 1 -24 14 6
8 17 17 54 21 83 l7 51 -31 0 c-17 0 -33 -4 -36 -9z"/>
<path d="M3180 965 c-17 -20 -5 -45 20 -45 11 0 23 7 26 15 6 15 -11 45 -26
45 -4 0 -13 -7 -20 -15z"/>
<path d="M3441 966 c-15 -18 -3 -46 20 -46 25 0 35 26 19 45 -15 19 -24 19
-39 1z"/>
<path d="M3196 547 c-9 -25 -35 -66 -57 -91 -40 -45 -40 -46 -37 -118 3 -68 5
-74 30 -86 50 -23 199 -36 290 -25 46 6 95 16 111 22 26 10 27 13 27 87 0 74
-1 77 -40 121 -21 24 -44 61 -51 81 -6 21 -15 41 -19 45 -4 5 -31 1 -60 -9
-52 -17 -72 -15 -156 11 -18 5 -23 0 -38 -38z"/>
<path d="M2925 386 l-30 -13 49 -31 c66 -42 76 -41 76 7 0 52 -31 65 -95 37z"/>
<path d="M3663 393 c-8 -2 -13 -22 -13 -44 0 -49 17 -51 86 -7 l49 31 -30 13
c-31 13 -70 16 -92 7z"/>
</g>
</svg>
