<?xml version="1.0" standalone="no"?>
<!DOCTYPE svg PUBLIC "-//W3C//DTD SVG 20010904//EN"
 "http://www.w3.org/TR/2001/REC-SVG-20010904/DTD/svg10.dtd">
<svg version="1.0" xmlns="http://www.w3.org/2000/svg"
 width="618.000000pt" height="716.000000pt" viewBox="0 0 618.000000 716.000000"
 preserveAspectRatio="xMidYMid meet">

<g transform="translate(0.000000,716.000000) scale(0.100000,-0.100000)"
fill="#000000" stroke="none">
<path d="M0 3580 l0 -3580 270 0 270 0 2 1857 c3 1810 4 1859 22 1903 30 69
102 175 142 207 19 15 41 33 48 38 21 18 50 35 76 45 14 6 32 14 41 19 53 30
175 32 2179 29 2258 -3 2052 4 2177 -77 74 -47 128 -103 172 -175 72 -120 66
62 69 -1993 l2 -1853 355 0 355 0 0 3580 0 3580 -3090 0 -3090 0 0 -3580z
m2100 2885 c5 -64 7 -70 30 -75 34 -8 32 -34 -2 -38 l-28 -3 0 -90 c0 -88 0
-89 -25 -89 l-25 0 0 178 c0 98 3 182 7 186 4 4 14 5 23 4 11 -2 16 -21 20
-73z m358 -68 l3 -138 -23 3 c-22 3 -23 7 -26 127 -3 138 0 154 25 149 16 -3
18 -19 21 -141z m440 -45 l2 -182 -25 0 -25 0 0 178 c0 98 3 182 7 186 4 4 14
5 23 4 13 -3 15 -30 18 -186z m184 166 c2 -19 11 -24 48 -28 58 -6 63 -33 7
-38 l-39 -3 26 -24 c44 -40 31 -103 -24 -120 -32 -10 -12 -27 29 -24 20 2 42
0 48 -4 9 -6 13 25 15 125 3 125 4 133 23 133 19 0 20 -8 23 -182 l2 -183 -25
0 c-23 0 -25 3 -25 46 0 40 -2 45 -15 34 -9 -7 -54 -13 -122 -13 -102 -2 -108
-1 -108 18 0 17 8 20 48 23 49 3 62 16 27 27 -55 17 -68 80 -24 120 l26 24
-39 3 c-26 2 -38 8 -38 18 0 11 13 16 48 18 37 2 47 7 47 21 0 37 37 44 42 9z
m503 -123 c0 -138 0 -140 -22 -143 -18 -3 -23 2 -23 17 0 17 -6 21 -33 21 -19
0 -37 3 -40 7 -13 12 15 33 44 33 l29 0 0 98 c0 102 3 115 30 110 13 -3 15
-25 15 -143z m-131 115 c53 -20 59 -85 10 -111 l-27 -14 44 -5 c49 -6 63 -33
19 -38 -58 -6 -70 -12 -70 -35 0 -31 -15 -51 -34 -44 -12 5 -16 0 -16 -23 l0
-30 105 0 c98 0 105 -1 105 -20 0 -19 -7 -20 -130 -20 l-131 0 3 63 c3 58 5
62 26 60 16 -2 22 2 22 17 0 16 -8 19 -47 22 -36 2 -49 7 -51 21 -3 15 6 17
75 18 65 1 71 3 36 8 -59 10 -85 36 -81 80 2 26 10 39 28 48 30 15 79 17 114
3z m901 -60 l0 -65 -119 -3 c-134 -3 -136 -2 -136 65 0 75 -2 74 134 71 l121
-3 0 -65z m-2980 42 c39 -24 59 -63 51 -97 -9 -35 -51 -73 -84 -77 -22 -2 -28
-9 -30 -35 l-3 -33 76 0 c67 0 76 -2 73 -17 -3 -16 -19 -18 -168 -18 -149 0
-165 2 -168 18 -3 15 5 17 68 17 56 0 72 3 77 16 8 22 -9 48 -35 52 -12 2 -35
16 -52 32 -43 40 -41 82 6 126 32 31 41 34 97 34 42 0 71 -6 92 -18z m620 -57
l0 -70 -62 -3 c-62 -3 -63 -3 -63 -32 l0 -30 79 0 c77 0 105 -10 84 -31 -5 -5
-53 -12 -106 -16 -96 -6 -96 -6 -102 19 -3 13 -5 47 -3 74 l3 49 60 5 c57 5
60 7 63 33 3 27 3 27 -57 27 -59 0 -74 9 -63 38 3 9 26 12 86 10 l81 -3 0 -70z
m334 49 c26 -21 31 -33 31 -69 0 -56 -41 -95 -100 -95 -60 0 -95 35 -95 95 0
39 5 51 28 71 39 33 95 33 136 -2z m329 -27 l3 -47 40 0 c39 0 39 0 39 38 0
39 14 62 37 62 10 0 13 -30 13 -130 l0 -131 -87 3 -88 3 -3 114 c-3 127 0 144
25 139 14 -2 19 -15 21 -51z m1362 33 c0 -17 -7 -20 -51 -20 -43 0 -50 -3 -47
-17 2 -10 29 -31 61 -47 51 -26 56 -31 43 -44 -18 -18 -50 -11 -101 24 -31 21
-43 24 -55 15 -38 -28 -99 -53 -114 -48 -28 11 -18 26 34 52 27 14 54 34 60
45 10 19 8 20 -45 20 -48 0 -55 2 -55 20 0 19 7 20 135 20 128 0 135 -1 135
-20z m680 0 c0 -18 -8 -20 -102 -22 l-103 -3 0 -45 0 -45 105 -5 c84 -4 105
-8 105 -20 0 -11 -14 -16 -52 -18 l-53 -3 0 -40 0 -39 70 0 c63 0 70 -2 70
-20 0 -19 -7 -20 -165 -20 -158 0 -165 1 -165 20 0 18 7 20 70 20 l70 0 0 40
0 40 -50 0 -50 0 0 90 0 90 125 0 c118 0 125 -1 125 -20z m-2932 -12 c3 -14
-3 -18 -22 -18 -25 0 -26 -3 -26 -54 0 -49 2 -55 22 -58 13 -2 24 -11 26 -20
3 -16 -8 -18 -131 -18 -112 0 -136 3 -141 15 -3 9 1 18 9 20 8 3 22 7 31 10
11 4 14 16 12 52 -2 39 -7 49 -23 51 -27 5 -39 18 -30 31 4 8 49 11 138 9 116
-3 132 -5 135 -20z m2627 -143 c0 -18 -8 -20 -67 -23 l-67 -3 -3 -32 c-2 -24
-8 -32 -23 -32 -15 0 -21 8 -23 33 l-3 32 -69 0 c-69 0 -87 8 -76 36 5 12 32
14 168 12 155 -3 163 -4 163 -23z m-342 -11 c3 -3 3 -12 0 -20 -4 -10 -24 -14
-74 -14 l-68 0 -3 -57 c-3 -50 -6 -58 -23 -58 -17 0 -20 8 -23 58 l-3 57 -69
0 c-63 0 -70 2 -70 20 0 19 7 20 163 20 90 0 166 -3 170 -6z m-1785 -71 l3
-43 100 0 c90 0 100 -2 97 -17 -3 -16 -18 -18 -126 -21 l-122 -3 0 66 c0 63 1
66 23 63 18 -2 23 -10 25 -45z m1882 -3 l5 -35 108 -3 c96 -2 108 -5 105 -20
-3 -15 -19 -17 -127 -20 -93 -2 -126 1 -133 10 -10 16 -11 92 -1 102 16 16 38
-1 43 -34z m-2352 -17 c-3 -16 -20 -18 -166 -21 -157 -2 -162 -2 -162 18 0 19
6 20 166 20 152 0 165 -1 162 -17z m-780 -525 l2 -178 -55 0 c-52 0 -55 1 -55
25 0 24 -2 25 -75 25 l-75 0 0 45 0 45 75 0 c68 0 75 2 75 20 0 18 -7 20 -70
20 -54 0 -70 -3 -70 -14 0 -21 -88 -109 -130 -130 -34 -17 -138 -55 -152 -56
-11 0 -38 56 -38 80 0 14 6 20 23 20 65 0 197 94 197 141 0 17 -8 19 -96 19
l-95 0 3 43 3 42 158 3 157 3 0 -31 c0 -30 0 -30 55 -30 l55 0 0 39 c0 45 8
51 65 48 l40 -2 3 -177z m650 -171 l2 -348 -47 3 -48 3 -3 335 c-1 184 0 341
3 348 3 9 19 12 47 10 l43 -3 3 -348z m600 216 l3 -132 42 -3 c41 -3 42 -4 45
-42 4 -44 -7 -56 -55 -56 l-33 0 -2 -162 -3 -163 -50 0 -50 0 -3 335 c-1 184
0 341 3 348 3 9 20 12 52 10 l48 -3 3 -132z m660 -216 l2 -348 -52 3 -53 3 -3
335 c-1 184 0 341 3 348 3 9 20 12 52 10 l48 -3 3 -348z m470 341 c7 -7 12
-22 12 -35 0 -21 5 -22 73 -25 l72 -3 0 -45 0 -45 -205 0 -205 0 0 45 0 45 73
3 c67 3 72 4 72 25 0 33 19 47 60 47 20 0 41 -5 48 -12z m1617 -338 l0 -345
-44 -3 c-28 -2 -47 1 -52 10 -5 7 -9 159 -9 339 0 246 3 328 12 337 7 7 30 12
53 10 l40 -3 0 -345z m-3485 321 c6 -12 10 -132 10 -319 0 -333 2 -326 -67
-320 l-38 3 -5 83 -5 84 -22 -26 c-13 -14 -29 -26 -37 -26 -16 0 -82 71 -98
106 -15 32 -23 30 -39 -8 -14 -34 -85 -118 -100 -118 -10 0 -69 62 -69 73 0 4
16 22 36 39 47 42 74 96 90 187 19 107 21 101 -41 101 -50 0 -55 2 -61 25 -3
14 -3 36 0 50 l6 25 155 0 155 0 0 -50 0 -50 -45 0 -45 0 0 -67 c0 -50 6 -81
24 -119 22 -48 70 -104 89 -104 4 0 7 28 5 63 l-3 62 -37 3 c-30 3 -39 8 -44
27 -11 44 -2 60 41 65 l40 5 3 100 c1 55 4 106 7 113 7 21 83 15 95 -7z m2162
-78 l3 -98 40 -3 c44 -4 55 -14 55 -52 0 -36 -18 -50 -62 -50 l-38 0 0 -111 0
-110 -52 3 -53 3 -3 258 -2 257 54 0 55 0 3 -97z m678 -152 c0 -277 1 -275
-67 -269 l-38 3 -3 123 -3 122 -54 0 -55 0 0 -59 c0 -38 -5 -63 -14 -70 -9 -8
-63 -11 -167 -9 l-154 3 -3 183 -2 183 52 -3 53 -3 3 -47 3 -48 54 0 54 0 3
48 3 47 49 3 c59 4 66 -4 66 -80 l0 -58 49 0 c59 0 61 4 61 106 l0 74 55 0 55
0 0 -249z m508 -75 c2 -344 4 -336 -50 -336 -58 0 -58 -1 -58 166 0 147 -1
154 -20 154 -15 0 -20 -7 -20 -29 0 -43 -32 -111 -71 -148 -28 -28 -40 -33
-81 -33 -41 0 -54 5 -83 33 -91 84 -102 312 -20 423 47 62 142 66 197 6 27
-29 58 -100 58 -132 0 -13 7 -20 20 -20 19 0 20 7 20 104 0 135 1 138 59 134
l46 -3 3 -319z m-2955 252 c3 -10 7 -10 19 0 11 9 41 12 95 10 l78 -3 3 -60
c4 -67 -21 -226 -46 -295 -22 -61 -84 -160 -100 -160 -19 0 -70 31 -76 46 -3
7 8 29 23 50 35 49 60 117 77 208 21 110 21 113 -26 118 -44 4 -43 7 -55 -106
-4 -32 -19 -89 -34 -126 -28 -68 -84 -150 -102 -150 -14 0 -79 44 -79 54 0 4
16 30 36 57 41 57 69 131 78 211 l6 57 -47 3 c-46 3 -48 4 -51 36 -5 54 9 62
108 62 62 0 90 -4 93 -12z m845 -17 c2 -12 1 -34 -2 -47 -6 -22 -11 -24 -71
-24 l-65 0 0 -44 c0 -88 78 -221 141 -241 25 -8 24 -21 -3 -62 -27 -39 -39
-40 -81 -11 -41 28 -68 58 -92 101 l-19 35 -41 -61 c-44 -66 -111 -122 -136
-112 -8 3 -23 22 -34 42 l-20 36 25 16 c77 50 128 137 137 235 l6 65 -69 3
-69 3 -3 48 -3 47 198 -2 198 -3 3 -24z m2770 -168 l-3 -198 -52 -3 c-48 -3
-53 -1 -57 20 -8 40 -18 357 -11 368 3 5 33 10 66 10 l59 0 -2 -197z m-2072
58 c33 -26 63 -76 63 -106 0 -30 -30 -80 -64 -107 -26 -20 -41 -23 -116 -23
-78 0 -89 2 -121 27 -82 63 -68 182 26 224 49 23 176 13 212 -15z m1874 -191
l0 -50 -130 0 -130 0 0 43 c0 24 3 47 7 50 3 4 62 7 130 7 l123 0 0 -50z
m-4320 -70 l0 -100 -175 0 c-148 0 -175 -2 -175 -15 0 -12 29 -15 183 -17
l182 -3 3 -43 3 -42 -243 2 -243 3 0 95 0 95 178 3 c147 2 177 5 177 17 0 12
-30 15 -177 17 l-178 3 -3 28 c-7 58 -13 57 238 57 l230 0 0 -100z m2990 -60
l0 -70 186 0 185 0 -3 -42 -3 -43 -237 -3 -238 -2 0 115 0 115 55 0 55 0 0
-70z m-676 54 c12 -5 16 -21 16 -65 l0 -59 186 0 185 0 -3 -42 -3 -43 -237 -3
-238 -2 0 104 c0 74 4 106 13 109 18 8 63 8 81 1z m2194 -44 c62 -58 -24 -152
-91 -100 -18 15 -27 31 -27 51 0 61 73 91 118 49z"/>
<path d="M3038 6403 c-29 -7 -23 -51 7 -59 14 -3 32 -4 40 0 16 6 21 56 6 56
-5 0 -15 2 -23 4 -7 2 -21 2 -30 -1z"/>
<path d="M3368 6473 c-41 -11 -7 -57 38 -51 26 3 54 31 43 42 -9 9 -62 15 -81
9z"/>
<path d="M4157 6473 c-4 -3 -7 -17 -7 -30 0 -22 3 -23 80 -23 l80 0 0 30 0 30
-73 0 c-41 0 -77 -3 -80 -7z"/>
<path d="M1222 6454 c-27 -18 -29 -55 -4 -77 27 -24 123 -23 145 1 24 26 21
47 -9 71 -32 25 -100 28 -132 5z"/>
<path d="M2227 6452 c-24 -26 -21 -59 7 -77 19 -13 29 -14 45 -5 36 19 43 45
20 74 -24 31 -49 33 -72 8z"/>
<path d="M2660 6335 c0 -34 1 -35 40 -35 39 0 40 1 40 35 0 34 -1 35 -40 35
-39 0 -40 -1 -40 -35z"/>
<path d="M1600 6405 l0 -56 33 3 c31 3 32 4 32 53 0 49 -1 50 -32 53 l-33 3 0
-56z"/>
<path d="M3920 5605 l0 -45 55 0 55 0 0 45 0 45 -55 0 -55 0 0 -45z"/>
<path d="M4544 5698 c-22 -42 -25 -179 -5 -225 20 -48 57 -46 78 4 22 53 14
204 -12 233 -26 28 -42 25 -61 -12z"/>
<path d="M3316 5621 c-22 -9 -35 -37 -28 -63 5 -20 55 -40 80 -31 24 8 52 34
52 47 -1 35 -64 63 -104 47z"/>
<path d="M5060 3742 c-14 -9 -27 -19 -30 -23 -3 -3 -15 -11 -27 -18 -21 -11
-23 -19 -23 -86 0 -41 3 -75 8 -75 4 0 6 31 4 68 l-4 69 51 37 c28 20 54 36
58 36 3 0 30 -18 59 -40 30 -22 51 -34 49 -27 -6 14 -98 77 -112 76 -4 0 -19
-8 -33 -17z"/>
<path d="M2810 3705 l0 -35 66 0 65 0 -3 33 c-3 32 -3 32 -65 35 l-63 3 0 -36z
m105 -5 c0 -24 -79 -21 -83 3 -3 16 2 18 40 15 30 -2 43 -7 43 -18z"/>
<path d="M3138 3693 c-3 -27 -1 -53 4 -60 7 -8 -1 -14 -26 -18 -71 -14 -52
-65 24 -65 55 0 81 20 60 45 -7 8 -19 15 -26 15 -9 0 -14 11 -14 30 0 17 5 30
10 30 6 0 10 -9 10 -20 0 -11 7 -20 15 -20 12 0 15 13 15 55 0 42 -3 55 -15
55 -8 0 -15 -9 -15 -20 0 -11 -4 -20 -10 -20 -5 0 -10 9 -10 20 0 41 -18 18
-22 -27z m37 -113 c0 -18 -52 -27 -67 -12 -17 17 2 33 35 30 20 -2 32 -8 32
-18z"/>
<path d="M3380 3725 c0 -8 -7 -15 -15 -15 -8 0 -15 -4 -15 -9 0 -5 7 -11 15
-15 8 -3 15 -17 15 -31 0 -14 5 -25 10 -25 6 0 10 25 10 55 0 30 -4 55 -10 55
-5 0 -10 -7 -10 -15z"/>
<path d="M898 3688 c-21 -22 -38 -43 -38 -47 0 -13 80 -85 87 -78 3 4 -8 22
-25 40 -18 18 -32 37 -32 42 0 5 17 26 37 47 21 22 31 38 23 37 -8 0 -32 -19
-52 -41z"/>
<path d="M2623 3723 c34 -5 35 -30 2 -45 -14 -6 -25 -15 -25 -20 0 -11 7 -10
41 8 28 14 34 14 62 0 17 -8 36 -12 41 -9 5 4 1 10 -10 14 -11 4 -26 14 -33
23 -11 13 -11 16 0 20 8 2 21 7 29 9 8 3 -19 5 -60 5 -41 -1 -63 -3 -47 -5z"/>
<path d="M3077 3724 c-4 -4 -7 -15 -7 -24 0 -10 -7 -23 -15 -30 -8 -7 -15 -16
-15 -21 0 -14 28 -11 33 4 3 9 9 9 26 -1 11 -7 21 -8 21 -4 0 18 -36 82 -43
76z"/>
<path d="M3279 3703 c-6 -16 -18 -36 -26 -45 -14 -16 -14 -18 -1 -18 9 0 21 7
28 15 12 14 15 14 30 0 30 -27 44 -8 15 21 -8 9 -15 24 -15 35 0 28 -19 23
-31 -8z"/>
<path d="M2810 3633 c20 -3 42 -13 51 -25 l17 -21 11 21 c7 13 24 22 44 25 17
2 -11 4 -63 4 -52 0 -79 -2 -60 -4z"/>
<path d="M2580 3620 c0 -5 18 -10 40 -10 38 0 40 -2 40 -30 0 -16 5 -30 10
-30 6 0 10 14 10 30 0 28 2 30 40 30 22 0 40 5 40 10 0 6 -37 10 -90 10 -53 0
-90 -4 -90 -10z"/>
<path d="M3286 3607 c-10 -7 -16 -22 -14 -33 3 -16 12 -19 63 -19 51 0 60 3
63 19 5 25 -23 46 -63 46 -17 0 -39 -6 -49 -13z m89 -27 c0 -19 -51 -26 -70
-10 -23 19 -7 31 33 28 25 -2 37 -8 37 -18z"/>
<path d="M2805 3588 c-12 -30 4 -38 71 -38 41 0 63 4 59 10 -3 6 -27 10 -52
10 -32 0 -50 5 -59 18 -12 16 -13 16 -19 0z"/>
<path d="M5190 3539 c0 -5 5 -7 10 -4 6 3 10 8 10 11 0 2 -4 4 -10 4 -5 0 -10
-5 -10 -11z"/>
<path d="M2250 2840 c0 -93 3 -121 13 -117 9 3 12 35 12 117 0 82 -3 114 -12
118 -10 3 -13 -25 -13 -118z"/>
<path d="M3038 2935 c-4 -33 -22 -37 -26 -7 -7 47 -27 15 -27 -41 0 -57 17
-80 23 -32 4 33 26 27 30 -8 7 -55 22 -25 22 43 0 67 -15 98 -22 45z"/>
<path d="M3270 2840 c0 -93 3 -121 13 -117 9 3 12 35 12 117 0 82 -3 114 -12
118 -10 3 -13 -25 -13 -118z"/>
<path d="M3500 2840 c0 -73 4 -120 10 -120 6 0 10 27 10 60 0 53 3 62 22 69
l22 8 -22 12 c-17 9 -22 21 -22 51 0 22 -4 40 -10 40 -6 0 -10 -47 -10 -120z"/>
<path d="M3750 2941 c0 -15 -6 -21 -23 -21 -13 0 -28 5 -34 11 -5 5 -32 9 -59
7 l-49 -3 0 -50 0 -50 55 2 c30 0 66 3 80 5 21 2 26 -2 28 -24 2 -17 9 -28 18
-28 12 0 14 15 12 82 -2 54 -7 83 -15 86 -8 2 -13 -5 -13 -17z m-80 -55 c0
-26 -5 -36 -20 -41 -28 -9 -40 2 -40 34 0 34 6 41 37 41 20 0 23 -5 23 -34z
m78 -3 c2 -8 -6 -13 -22 -13 -17 0 -26 5 -26 16 0 19 41 16 48 -3z"/>
<path d="M2340 2940 c0 -5 11 -10 24 -10 40 0 40 -18 -1 -42 -31 -19 -34 -23
-18 -27 10 -2 34 5 52 14 31 17 34 17 52 1 12 -11 30 -16 48 -14 l28 4 -37 16
c-47 21 -51 48 -8 48 17 0 30 5 30 10 0 6 -35 10 -85 10 -50 0 -85 -4 -85 -10z"/>
<path d="M2640 2931 c0 -6 33 -11 73 -13 l72 -3 -3 -58 c-2 -44 1 -58 10 -55
9 3 13 26 13 69 l0 64 -82 3 c-51 2 -83 -1 -83 -7z"/>
<path d="M2870 2930 c0 -5 14 -10 30 -10 39 0 38 -15 -5 -56 -41 -38 -32 -53
13 -21 31 22 57 71 46 88 -7 12 -84 11 -84 -1z"/>
<path d="M3128 2923 c-61 -70 12 -198 75 -134 29 28 30 100 3 130 -23 26 -58
27 -78 4z m62 -22 c23 -44 9 -101 -25 -101 -26 0 -35 17 -35 64 0 52 39 76 60
37z"/>
<path d="M3350 2930 c0 -5 15 -10 34 -10 22 0 36 -6 40 -16 9 -24 -2 -34 -39
-34 -29 0 -36 -4 -41 -25 -3 -14 -3 -37 0 -51 7 -25 8 -25 64 -19 78 10 90 25
18 25 -54 0 -57 1 -54 23 2 18 10 23 41 25 37 3 37 4 37 48 l0 44 -50 0 c-27
0 -50 -4 -50 -10z"/>
<path d="M3844 2930 c-28 -11 -39 -40 -16 -40 10 0 23 5 29 11 14 14 43 5 43
-14 0 -8 -9 -22 -20 -32 -18 -16 -28 -55 -15 -55 3 0 19 15 35 33 37 41 39 80
5 95 -30 14 -32 14 -61 2z"/>
<path d="M2095 2920 c3 -5 22 -10 41 -10 19 0 34 -4 34 -9 0 -26 -24 -67 -58
-97 -31 -29 -34 -34 -16 -34 39 0 104 87 104 141 0 16 -7 19 -56 19 -34 0 -53
-4 -49 -10z"/>
<path d="M2411 2852 c-9 -18 -20 -22 -57 -22 -28 0 -43 -4 -39 -10 3 -6 52
-10 111 -10 63 0 104 4 104 10 0 6 -20 10 -43 10 -36 0 -46 4 -54 22 l-10 23
-12 -23z"/>
<path d="M2700 2816 l0 -46 -40 0 c-22 0 -40 -4 -40 -10 0 -6 42 -10 105 -10
63 0 105 4 105 10 0 6 -22 10 -49 10 l-50 0 -3 42 c-4 59 -28 63 -28 4z"/>
<path d="M2960 2791 c62 -6 65 -7 70 -35 8 -47 30 -45 30 3 l0 41 -82 -2 -83
-1 65 -6z"/>
<path d="M3620 2760 l0 -40 74 0 c41 0 78 5 81 10 4 6 -18 10 -60 10 -65 0
-66 0 -71 30 -9 43 -24 37 -24 -10z"/>
<path d="M2342 2759 l3 -34 78 -3 c48 -2 77 1 77 8 0 6 -26 10 -64 10 -59 0
-65 2 -68 22 -2 12 -9 23 -16 26 -10 3 -13 -5 -10 -29z"/>
<path d="M3854 2769 c-8 -14 11 -33 25 -25 11 7 4 36 -9 36 -5 0 -12 -5 -16
-11z"/>
<path d="M930 2310 c0 -14 -7 -20 -22 -21 l-23 0 23 -9 c15 -6 22 -18 22 -35
0 -14 5 -25 10 -25 6 0 10 25 10 55 0 30 -4 55 -10 55 -5 0 -10 -9 -10 -20z"/>
<path d="M1010 2315 c-21 -12 -22 -15 -7 -21 17 -6 17 -8 1 -25 -30 -33 18
-63 70 -43 20 8 20 28 0 48 -14 15 -14 16 0 16 24 0 19 15 -9 28 -14 7 -27 12
-28 11 -1 -1 -13 -7 -27 -14z m55 -65 c0 -8 -10 -16 -22 -18 -22 -3 -32 16
-16 32 12 11 38 2 38 -14z"/>
<path d="M1120 2275 c0 -30 5 -55 10 -55 6 0 10 9 10 20 0 11 7 20 15 20 8 0
15 5 15 10 0 6 -7 10 -15 10 -9 0 -15 9 -15 25 0 14 -4 25 -10 25 -5 0 -10
-25 -10 -55z"/>
<path d="M1710 2310 l-25 -20 48 0 c26 0 47 5 47 10 0 6 -7 10 -15 10 -8 0
-15 5 -15 10 0 15 -12 12 -40 -10z"/>
<path d="M1800 2263 c0 -42 4 -73 10 -73 6 0 10 14 10 31 0 17 4 28 10 24 6
-3 10 -17 10 -31 0 -13 5 -24 10 -24 6 0 10 30 10 70 0 40 -4 70 -10 70 -5 0
-10 -11 -10 -24 0 -14 -4 -28 -10 -31 -5 -3 -10 2 -10 12 0 10 -5 25 -10 33
-7 10 -10 -7 -10 -57z"/>
<path d="M2490 2305 c0 -32 -39 -36 -47 -5 -6 23 -23 27 -23 5 0 -9 -9 -15
-25 -15 -16 0 -25 6 -25 15 0 8 -4 15 -10 15 -5 0 -10 -22 -10 -50 l0 -50 44
0 c36 0 45 4 49 21 9 33 41 20 45 -19 6 -60 22 -32 22 38 0 40 -4 70 -10 70
-5 0 -10 -11 -10 -25z m-72 -52 c5 -17 -26 -29 -40 -15 -6 6 -7 15 -3 22 9 14
37 9 43 -7z"/>
<path d="M2623 2319 c-6 -6 -26 -15 -45 -19 -24 -6 -11 -8 52 -8 64 0 77 2 51
8 -18 4 -37 13 -40 19 -5 8 -10 8 -18 0z"/>
<path d="M2940 2310 c0 -11 -7 -23 -15 -26 -8 -4 -15 -10 -15 -15 0 -5 7 -9
15 -9 9 0 15 -9 15 -24 0 -23 -4 -25 -52 -28 -52 -3 -53 -4 -56 -35 l-3 -33
64 0 65 0 1 95 c0 56 -3 95 -9 95 -6 0 -10 -9 -10 -20z m0 -141 c0 -18 -5 -20
-42 -17 -31 2 -44 8 -46 21 -3 14 4 17 42 17 40 0 46 -3 46 -21z"/>
<path d="M3108 2324 c-12 -11 -10 -104 2 -104 6 0 10 9 10 21 0 28 23 19 31
-12 4 -15 7 1 7 41 0 36 -2 58 -5 50 -3 -8 -11 -21 -17 -29 -9 -11 -12 -9 -16
13 -3 15 -8 24 -12 20z"/>
<path d="M830 2298 c0 -12 -10 -32 -22 -45 -28 -30 -15 -43 16 -14 20 19 24
20 36 6 7 -8 19 -15 27 -15 11 0 7 9 -11 31 -14 17 -26 37 -26 45 0 8 -4 14
-10 14 -5 0 -10 -10 -10 -22z"/>
<path d="M1263 2313 c-8 -2 -13 -22 -13 -44 0 -39 0 -39 38 -38 32 1 33 2 12
8 -33 9 -41 50 -11 58 12 3 21 9 21 14 0 10 -27 11 -47 2z"/>
<path d="M1338 2279 c-2 -22 -2 -42 1 -45 2 -2 20 -4 40 -3 32 1 33 2 11 8
-29 8 -40 48 -16 57 24 9 19 24 -8 24 -21 0 -24 -6 -28 -41z"/>
<path d="M1460 2290 l0 -30 73 2 72 1 -60 6 c-53 5 -60 9 -63 29 -5 33 -22 27
-22 -8z"/>
<path d="M1923 2313 c-8 -3 -13 -23 -13 -49 l0 -44 73 2 c69 2 70 2 15 5 -51
4 -59 7 -64 28 -9 36 2 45 57 45 31 0 48 4 44 10 -6 10 -90 13 -112 3z"/>
<path d="M2113 2313 c20 -5 23 -33 5 -51 -9 -9 -6 -12 14 -12 34 0 46 -18 16
-24 -13 -3 -32 -7 -43 -9 -11 -3 21 -5 70 -5 90 0 94 1 43 12 -38 9 -35 26 4
26 31 0 31 0 12 21 -18 20 -18 21 1 35 17 12 10 14 -61 13 -43 -1 -71 -3 -61
-6z m85 -25 c-2 -13 -10 -23 -18 -23 -8 0 -16 10 -18 23 -3 17 2 22 18 22 16
0 21 -5 18 -22z"/>
<path d="M2810 2310 c0 -5 14 -10 30 -10 17 0 30 -4 30 -9 0 -5 -13 -21 -30
-34 -35 -30 -38 -37 -10 -30 26 7 60 50 60 74 0 15 -8 19 -40 19 -22 0 -40 -4
-40 -10z"/>
<path d="M3030 2293 c0 -14 -7 -35 -17 -45 -21 -23 -11 -34 11 -12 13 12 20
14 29 5 6 -6 18 -11 26 -11 12 0 12 3 -2 18 -8 9 -19 29 -22 45 -9 35 -25 35
-25 0z"/>
<path d="M1712 2271 c-8 -4 -12 -19 -10 -32 2 -19 9 -24 32 -24 36 0 56 26 37
49 -15 18 -39 20 -59 7z m48 -26 c0 -8 -9 -15 -20 -15 -11 0 -20 7 -20 15 0 8
9 15 20 15 11 0 20 -7 20 -15z"/>
<path d="M2592 2268 c-29 -14 -26 -49 6 -63 36 -16 27 -35 -19 -35 -24 0 -38
-4 -34 -10 3 -5 42 -10 85 -10 43 0 82 5 85 10 4 6 -10 10 -34 10 -44 0 -60
26 -20 32 32 4 48 34 29 53 -21 20 -70 27 -98 13z m75 -23 c8 -21 -1 -28 -37
-28 -36 0 -45 7 -37 28 4 9 19 15 37 15 18 0 33 -6 37 -15z"/>
<path d="M1445 2220 c3 -5 42 -10 85 -10 43 0 82 5 85 10 4 6 -27 10 -85 10
-58 0 -89 -4 -85 -10z"/>
<path d="M855 2200 c-42 -7 -48 -46 -8 -61 30 -11 88 -4 98 11 4 6 4 19 0 29
-6 21 -43 29 -90 21z m70 -30 c0 -18 -62 -27 -77 -12 -18 18 3 33 40 30 25 -2
37 -8 37 -18z"/>
<path d="M1317 2191 c-3 -14 -16 -21 -43 -24 -22 -2 4 -4 56 -4 52 0 78 2 56
4 -27 3 -40 10 -43 24 -3 10 -9 19 -13 19 -4 0 -10 -9 -13 -19z"/>
<path d="M1017 2193 c-9 -9 -9 -53 1 -54 4 0 32 -1 62 -2 l55 -1 3 32 3 32
-59 0 c-32 0 -62 -3 -65 -7z m101 -25 c-5 -14 -51 -23 -74 -14 -27 10 -4 26
37 26 28 0 39 -4 37 -12z"/>
<path d="M2387 2194 c-4 -4 -7 -18 -7 -31 0 -22 3 -23 68 -21 l67 1 -55 6
c-46 5 -55 9 -60 29 -3 13 -8 20 -13 16z"/>
<path d="M3035 2190 c3 -5 28 -10 56 -10 42 0 49 -3 49 -19 0 -11 5 -23 10
-26 6 -4 10 8 10 29 l0 36 -66 0 c-41 0 -63 -4 -59 -10z"/>
<path d="M1460 2168 l0 -28 73 2 c66 2 67 2 17 5 -42 3 -59 9 -72 26 l-18 22
0 -27z"/>
<path d="M1730 2168 c0 -28 0 -28 68 -26 59 1 61 2 17 5 -37 3 -55 10 -67 26
l-18 22 0 -27z"/>
<path d="M2117 2184 c-4 -4 -7 -16 -7 -26 0 -16 8 -18 73 -16 l72 1 -59 6
c-45 5 -61 10 -65 24 -4 10 -10 15 -14 11z"/>
<path d="M1933 2163 c26 -2 68 -2 95 0 26 2 4 3 -48 3 -52 0 -74 -1 -47 -3z"/>
</g>
</svg>
